G75*
%MOIN*%
%OFA0B0*%
%FSLAX24Y24*%
%IPPOS*%
%LPD*%
%AMOC8*
5,1,8,0,0,1.08239X$1,22.5*
%
%ADD10C,0.1182*%
%ADD11C,0.0240*%
%ADD12C,0.0730*%
%ADD13R,0.0730X0.0730*%
%ADD14R,0.0320X0.0950*%
%ADD15R,0.0474X0.0513*%
%ADD16R,0.0513X0.0474*%
%ADD17C,0.0720*%
%ADD18R,0.1891X0.0474*%
%ADD19R,0.1419X0.0710*%
%ADD20R,0.0580X0.0330*%
D10*
X001528Y008711D03*
X001528Y028003D03*
X024363Y028003D03*
X024363Y008711D03*
D11*
X020900Y008333D02*
X018900Y008333D01*
X018900Y009333D02*
X020900Y009333D01*
X020900Y010833D02*
X020900Y014833D01*
X019900Y014833D02*
X019900Y010833D01*
X018900Y010833D02*
X018900Y014833D01*
X018900Y016833D02*
X018900Y020833D01*
X017900Y020833D02*
X017900Y016833D01*
X016900Y016833D02*
X016900Y020833D01*
X015900Y020833D02*
X015900Y016833D01*
X014900Y016833D02*
X014900Y020833D01*
X013900Y020833D02*
X013900Y016833D01*
X012900Y016833D02*
X012900Y020833D01*
X011900Y020833D02*
X011900Y016833D01*
X010900Y016833D02*
X010900Y020833D01*
X009900Y020833D02*
X009900Y016833D01*
X008900Y016833D02*
X008900Y020833D01*
X007900Y020833D02*
X007900Y016833D01*
X006900Y016833D02*
X006900Y020833D01*
X005900Y020833D02*
X005900Y016833D01*
X004900Y016833D02*
X004900Y020833D01*
X003900Y020833D02*
X003900Y016833D01*
X002900Y016833D02*
X002900Y020833D01*
X002900Y022833D02*
X020900Y022833D01*
X020900Y023833D02*
X002900Y023833D01*
X002900Y014833D02*
X002900Y010833D01*
X003900Y010833D02*
X003900Y014833D01*
X004900Y014833D02*
X004900Y010833D01*
X005900Y010833D02*
X005900Y014833D01*
X006900Y014833D02*
X006900Y010833D01*
X007900Y010833D02*
X007900Y014833D01*
X008900Y014833D02*
X008900Y010833D01*
X009900Y010833D02*
X009900Y014833D01*
X010900Y014833D02*
X010900Y010833D01*
X011900Y010833D02*
X011900Y014833D01*
X012900Y014833D02*
X012900Y010833D01*
X013900Y010833D02*
X013900Y014833D01*
X014900Y014833D02*
X014900Y010833D01*
X015900Y010833D02*
X015900Y014833D01*
X019900Y016833D02*
X019900Y020833D01*
X020900Y020833D02*
X020900Y016833D01*
X015900Y009333D02*
X004900Y009333D01*
X004900Y008333D02*
X015900Y008333D01*
D12*
X015445Y027503D03*
X015445Y028503D03*
X014445Y028503D03*
X014445Y027503D03*
X013445Y027503D03*
X013445Y028503D03*
X012445Y028503D03*
X012445Y027503D03*
X011445Y027503D03*
X011445Y028503D03*
X010445Y028503D03*
X010445Y027503D03*
X009445Y027503D03*
X009445Y028503D03*
X008445Y028503D03*
X008445Y027503D03*
X007445Y027503D03*
X007445Y028503D03*
X006445Y028503D03*
X005445Y028503D03*
X005445Y027503D03*
X006445Y027503D03*
X004445Y027503D03*
X004445Y028503D03*
X003445Y028503D03*
X016445Y028503D03*
X016445Y027503D03*
X017445Y027503D03*
X017445Y028503D03*
X018445Y028503D03*
X018445Y027503D03*
X019445Y027503D03*
X019445Y028503D03*
X020445Y028503D03*
X020445Y027503D03*
X021445Y027503D03*
X021445Y028503D03*
X022445Y028503D03*
X022445Y027503D03*
D13*
X003445Y027503D03*
D14*
X023319Y017608D03*
X023819Y017608D03*
X024319Y017608D03*
X024819Y017608D03*
X024819Y014958D03*
X024319Y014958D03*
X023819Y014958D03*
X023319Y014958D03*
D15*
X022400Y014629D03*
X022400Y015338D03*
X022400Y015879D03*
X022400Y016588D03*
X022400Y017129D03*
X022400Y017838D03*
X021750Y010688D03*
X021750Y009979D03*
D16*
X022346Y018783D03*
X023054Y018783D03*
D17*
X004900Y008333D03*
X004900Y009333D03*
X005900Y009333D03*
X005900Y008333D03*
X006900Y008333D03*
X006900Y009333D03*
X007900Y009333D03*
X007900Y008333D03*
X008900Y008333D03*
X008900Y009333D03*
X009900Y009333D03*
X009900Y008333D03*
X010900Y008333D03*
X011900Y008333D03*
X011900Y009333D03*
X010900Y009333D03*
X010900Y010833D03*
X011900Y010833D03*
X012900Y010833D03*
X013900Y010833D03*
X014900Y010833D03*
X015900Y010833D03*
X015900Y011833D03*
X015900Y012833D03*
X015900Y013833D03*
X014900Y013833D03*
X014900Y012833D03*
X014900Y011833D03*
X013900Y011833D03*
X013900Y012833D03*
X013900Y013833D03*
X012900Y013833D03*
X012900Y012833D03*
X012900Y011833D03*
X011900Y011833D03*
X010900Y011833D03*
X010900Y012833D03*
X011900Y012833D03*
X011900Y013833D03*
X010900Y013833D03*
X009900Y013833D03*
X009900Y012833D03*
X009900Y011833D03*
X009900Y010833D03*
X008900Y010833D03*
X007900Y010833D03*
X006900Y010833D03*
X005900Y010833D03*
X004900Y010833D03*
X003900Y010833D03*
X002900Y010833D03*
X002900Y011833D03*
X002900Y012833D03*
X002900Y013833D03*
X003900Y013833D03*
X003900Y012833D03*
X003900Y011833D03*
X004900Y011833D03*
X004900Y012833D03*
X004900Y013833D03*
X005900Y013833D03*
X005900Y012833D03*
X005900Y011833D03*
X006900Y011833D03*
X006900Y012833D03*
X006900Y013833D03*
X007900Y013833D03*
X007900Y012833D03*
X007900Y011833D03*
X008900Y011833D03*
X008900Y012833D03*
X008900Y013833D03*
X008900Y014833D03*
X007900Y014833D03*
X006900Y014833D03*
X005900Y014833D03*
X004900Y014833D03*
X003900Y014833D03*
X002900Y014833D03*
X002900Y016833D03*
X002900Y017833D03*
X002900Y018833D03*
X003900Y018833D03*
X003900Y017833D03*
X003900Y016833D03*
X004900Y016833D03*
X004900Y017833D03*
X004900Y018833D03*
X005900Y018833D03*
X005900Y017833D03*
X005900Y016833D03*
X006900Y016833D03*
X006900Y017833D03*
X006900Y018833D03*
X007900Y018833D03*
X007900Y017833D03*
X007900Y016833D03*
X008900Y016833D03*
X008900Y017833D03*
X008900Y018833D03*
X009900Y018833D03*
X009900Y017833D03*
X009900Y016833D03*
X010900Y016833D03*
X011900Y016833D03*
X011900Y017833D03*
X010900Y017833D03*
X010900Y018833D03*
X011900Y018833D03*
X012900Y018833D03*
X012900Y017833D03*
X012900Y016833D03*
X013900Y016833D03*
X013900Y017833D03*
X013900Y018833D03*
X014900Y018833D03*
X014900Y017833D03*
X014900Y016833D03*
X015900Y016833D03*
X015900Y017833D03*
X015900Y018833D03*
X016900Y018833D03*
X016900Y017833D03*
X016900Y016833D03*
X017900Y016833D03*
X018900Y016833D03*
X018900Y017833D03*
X017900Y017833D03*
X017900Y018833D03*
X018900Y018833D03*
X019900Y018833D03*
X019900Y017833D03*
X019900Y016833D03*
X020900Y016833D03*
X020900Y017833D03*
X020900Y018833D03*
X020900Y019833D03*
X020900Y020833D03*
X019900Y020833D03*
X019900Y019833D03*
X018900Y019833D03*
X017900Y019833D03*
X017900Y020833D03*
X018900Y020833D03*
X016900Y020833D03*
X016900Y019833D03*
X015900Y019833D03*
X015900Y020833D03*
X014900Y020833D03*
X014900Y019833D03*
X013900Y019833D03*
X013900Y020833D03*
X012900Y020833D03*
X012900Y019833D03*
X011900Y019833D03*
X010900Y019833D03*
X010900Y020833D03*
X011900Y020833D03*
X009900Y020833D03*
X009900Y019833D03*
X008900Y019833D03*
X008900Y020833D03*
X007900Y020833D03*
X007900Y019833D03*
X006900Y019833D03*
X006900Y020833D03*
X005900Y020833D03*
X005900Y019833D03*
X004900Y019833D03*
X003900Y019833D03*
X003900Y020833D03*
X004900Y020833D03*
X002900Y020833D03*
X002900Y019833D03*
X002900Y022833D03*
X002900Y023833D03*
X003900Y023833D03*
X003900Y022833D03*
X004900Y022833D03*
X004900Y023833D03*
X005900Y023833D03*
X005900Y022833D03*
X006900Y022833D03*
X006900Y023833D03*
X007900Y023833D03*
X007900Y022833D03*
X008900Y022833D03*
X008900Y023833D03*
X009900Y023833D03*
X009900Y022833D03*
X010900Y022833D03*
X011900Y022833D03*
X011900Y023833D03*
X010900Y023833D03*
X010900Y024833D03*
X011900Y024833D03*
X012900Y024833D03*
X012900Y023833D03*
X012900Y022833D03*
X013900Y022833D03*
X013900Y023833D03*
X014900Y023833D03*
X014900Y022833D03*
X015900Y022833D03*
X015900Y023833D03*
X016900Y023833D03*
X016900Y022833D03*
X017900Y022833D03*
X018900Y022833D03*
X018900Y023833D03*
X017900Y023833D03*
X017900Y024833D03*
X018900Y024833D03*
X019900Y024833D03*
X019900Y023833D03*
X019900Y022833D03*
X020900Y022833D03*
X020900Y023833D03*
X020900Y024833D03*
X021900Y024833D03*
X022900Y024833D03*
X023900Y024833D03*
X024900Y024833D03*
X016900Y024833D03*
X015900Y024833D03*
X014900Y024833D03*
X013900Y024833D03*
X009900Y024833D03*
X008900Y024833D03*
X007900Y024833D03*
X006900Y024833D03*
X005900Y024833D03*
X004900Y024833D03*
X003900Y024833D03*
X002900Y024833D03*
X001900Y024833D03*
X000900Y024833D03*
X009900Y014833D03*
X010900Y014833D03*
X011900Y014833D03*
X012900Y014833D03*
X013900Y014833D03*
X014900Y014833D03*
X015900Y014833D03*
X018900Y014833D03*
X018900Y013833D03*
X018900Y012833D03*
X018900Y011833D03*
X018900Y010833D03*
X019900Y010833D03*
X020900Y010833D03*
X020900Y011833D03*
X020900Y012833D03*
X020900Y013833D03*
X019900Y013833D03*
X019900Y012833D03*
X019900Y011833D03*
X019900Y009333D03*
X019900Y008333D03*
X018900Y008333D03*
X018900Y009333D03*
X020900Y009333D03*
X020900Y008333D03*
X015900Y008333D03*
X015900Y009333D03*
X014900Y009333D03*
X014900Y008333D03*
X013900Y008333D03*
X013900Y009333D03*
X012900Y009333D03*
X012900Y008333D03*
X019900Y014833D03*
X020900Y014833D03*
D18*
X022987Y012971D03*
X022987Y012183D03*
X022987Y011396D03*
X022987Y020702D03*
X022987Y021490D03*
X022987Y022277D03*
X022987Y023064D03*
D19*
X025034Y024009D03*
X025034Y019757D03*
X025034Y013916D03*
X025034Y010451D03*
D20*
X022100Y013706D03*
X022100Y014060D03*
M02*
