G75*
%MOIN*%
%OFA0B0*%
%FSLAX24Y24*%
%IPPOS*%
%LPD*%
%AMOC8*
5,1,8,0,0,1.08239X$1,22.5*
%
%ADD10C,0.0050*%
%ADD11C,0.0040*%
%ADD12C,0.0160*%
%ADD13C,0.0030*%
%ADD14C,0.0100*%
%ADD15C,0.0080*%
%ADD16C,0.0060*%
%ADD17R,0.0250X0.0100*%
%ADD18R,0.0300X0.0180*%
%ADD19C,0.0220*%
%ADD20C,0.0020*%
D10*
X003269Y008108D02*
X003419Y008108D01*
X003494Y008183D01*
X003494Y008334D01*
X003344Y008334D01*
X003494Y008484D02*
X003419Y008559D01*
X003269Y008559D01*
X003194Y008484D01*
X003194Y008183D01*
X003269Y008108D01*
X003654Y008108D02*
X003654Y008559D01*
X003954Y008108D01*
X003954Y008559D01*
X004115Y008559D02*
X004340Y008559D01*
X004415Y008484D01*
X004415Y008183D01*
X004340Y008108D01*
X004115Y008108D01*
X004115Y008559D01*
X004265Y009108D02*
X004415Y009258D01*
X004415Y009559D01*
X004115Y009559D02*
X004115Y009258D01*
X004265Y009108D01*
X003954Y009183D02*
X003879Y009108D01*
X003729Y009108D01*
X003654Y009183D01*
X003654Y009334D02*
X003804Y009409D01*
X003879Y009409D01*
X003954Y009334D01*
X003954Y009183D01*
X003654Y009334D02*
X003654Y009559D01*
X003954Y009559D01*
X011755Y021458D02*
X011755Y021909D01*
X011980Y021909D01*
X012055Y021834D01*
X012055Y021683D01*
X011980Y021608D01*
X011755Y021608D01*
X011595Y021683D02*
X011520Y021758D01*
X011370Y021758D01*
X011295Y021834D01*
X011370Y021909D01*
X011595Y021909D01*
X011595Y021683D02*
X011520Y021608D01*
X011295Y021608D01*
X011135Y021608D02*
X010910Y021608D01*
X010834Y021683D01*
X010910Y021758D01*
X011135Y021758D01*
X011135Y021834D02*
X011135Y021608D01*
X011135Y021834D02*
X011060Y021909D01*
X010910Y021909D01*
X010674Y021984D02*
X010674Y021834D01*
X010599Y021758D01*
X010374Y021758D01*
X010374Y021608D02*
X010374Y022059D01*
X010599Y022059D01*
X010674Y021984D01*
X010524Y021758D02*
X010674Y021608D01*
X009755Y021909D02*
X009680Y021909D01*
X009530Y021758D01*
X009530Y021608D02*
X009530Y021909D01*
X009370Y021834D02*
X009295Y021909D01*
X009145Y021909D01*
X009070Y021834D01*
X009070Y021683D01*
X009145Y021608D01*
X009295Y021608D01*
X009370Y021683D01*
X009370Y021834D01*
X008913Y021834D02*
X008763Y021834D01*
X008838Y021984D02*
X008913Y022059D01*
X008838Y021984D02*
X008838Y021608D01*
X008142Y022059D02*
X007842Y022059D01*
X007992Y022059D02*
X007992Y021608D01*
X007682Y021608D02*
X007682Y021909D01*
X007532Y022059D01*
X007381Y021909D01*
X007381Y021608D01*
X007221Y021608D02*
X007221Y022059D01*
X007221Y021834D02*
X006921Y021834D01*
X006921Y022059D02*
X006921Y021608D01*
X007381Y021834D02*
X007682Y021834D01*
X006301Y021683D02*
X006301Y021984D01*
X006226Y022059D01*
X006075Y022059D01*
X006000Y021984D01*
X006000Y021683D01*
X006075Y021608D01*
X006226Y021608D01*
X006301Y021683D01*
X005840Y022059D02*
X005540Y022059D01*
X005690Y022059D02*
X005690Y021608D01*
X005380Y021683D02*
X005380Y021984D01*
X005305Y022059D01*
X005155Y022059D01*
X005080Y021984D01*
X005080Y021683D01*
X005155Y021608D01*
X005305Y021608D01*
X005380Y021683D01*
X004919Y021608D02*
X004769Y021758D01*
X004844Y021758D02*
X004619Y021758D01*
X004619Y021608D02*
X004619Y022059D01*
X004844Y022059D01*
X004919Y021984D01*
X004919Y021834D01*
X004844Y021758D01*
X004459Y021834D02*
X004459Y021984D01*
X004384Y022059D01*
X004159Y022059D01*
X004159Y021608D01*
X004159Y021758D02*
X004384Y021758D01*
X004459Y021834D01*
X002315Y022683D02*
X002315Y022984D01*
X002240Y023059D01*
X002015Y023059D01*
X002015Y022608D01*
X002240Y022608D01*
X002315Y022683D01*
X001854Y022608D02*
X001854Y023059D01*
X001554Y023059D02*
X001854Y022608D01*
X001554Y022608D02*
X001554Y023059D01*
X001394Y022984D02*
X001319Y023059D01*
X001169Y023059D01*
X001094Y022984D01*
X001094Y022683D01*
X001169Y022608D01*
X001319Y022608D01*
X001394Y022683D01*
X001394Y022834D01*
X001244Y022834D01*
X001319Y023608D02*
X001169Y023608D01*
X001094Y023683D01*
X001244Y023834D02*
X001319Y023834D01*
X001394Y023758D01*
X001394Y023683D01*
X001319Y023608D01*
X001319Y023834D02*
X001394Y023909D01*
X001394Y023984D01*
X001319Y024059D01*
X001169Y024059D01*
X001094Y023984D01*
X001554Y024059D02*
X001554Y023758D01*
X001704Y023608D01*
X001854Y023758D01*
X001854Y024059D01*
X002015Y023984D02*
X002090Y024059D01*
X002240Y024059D01*
X002315Y023984D01*
X002315Y023909D01*
X002240Y023834D01*
X002315Y023758D01*
X002315Y023683D01*
X002240Y023608D01*
X002090Y023608D01*
X002015Y023683D01*
X002165Y023834D02*
X002240Y023834D01*
X002050Y025358D02*
X002125Y025433D01*
X002125Y025584D01*
X002050Y025659D01*
X001975Y025659D01*
X001900Y025584D01*
X001900Y025433D01*
X001825Y025358D01*
X001750Y025358D01*
X001675Y025433D01*
X001675Y025584D01*
X001750Y025659D01*
X001750Y025819D02*
X002050Y025819D01*
X002125Y025894D01*
X002125Y026044D01*
X002050Y026119D01*
X002125Y026279D02*
X001675Y026279D01*
X001750Y026119D02*
X001675Y026044D01*
X001675Y025894D01*
X001750Y025819D01*
X002125Y026279D02*
X002125Y026579D01*
X002675Y026119D02*
X003125Y025819D01*
X003125Y026119D02*
X002675Y025819D01*
X002675Y025659D02*
X002675Y025358D01*
X002675Y025508D02*
X003125Y025508D01*
X003675Y025584D02*
X003675Y025358D01*
X004125Y025358D01*
X003975Y025358D02*
X003975Y025584D01*
X003900Y025659D01*
X003750Y025659D01*
X003675Y025584D01*
X003675Y025819D02*
X004125Y026119D01*
X004125Y025819D02*
X003675Y026119D01*
X004125Y025659D02*
X003975Y025508D01*
X004675Y025584D02*
X004900Y025358D01*
X004900Y025659D01*
X005125Y025584D02*
X004675Y025584D01*
X005675Y025584D02*
X005675Y025433D01*
X005750Y025358D01*
X006050Y025358D01*
X006125Y025433D01*
X006125Y025584D01*
X006050Y025659D01*
X005900Y025659D01*
X005900Y025508D01*
X005750Y025659D02*
X005675Y025584D01*
X005675Y025819D02*
X006125Y026119D01*
X005675Y026119D01*
X005675Y026279D02*
X005675Y026504D01*
X005750Y026579D01*
X006050Y026579D01*
X006125Y026504D01*
X006125Y026279D01*
X005675Y026279D01*
X005675Y025819D02*
X006125Y025819D01*
X006675Y025819D02*
X006675Y026119D01*
X006750Y026119D01*
X007050Y025819D01*
X007125Y025819D01*
X007125Y025659D02*
X007125Y025358D01*
X007125Y025508D02*
X006675Y025508D01*
X006825Y025358D01*
X007675Y025508D02*
X008125Y025508D01*
X008125Y025358D02*
X008125Y025659D01*
X008050Y025819D02*
X007975Y025819D01*
X007900Y025894D01*
X007900Y026044D01*
X007975Y026119D01*
X008050Y026119D01*
X008125Y026044D01*
X008125Y025894D01*
X008050Y025819D01*
X007900Y025894D02*
X007825Y025819D01*
X007750Y025819D01*
X007675Y025894D01*
X007675Y026044D01*
X007750Y026119D01*
X007825Y026119D01*
X007900Y026044D01*
X007675Y025508D02*
X007825Y025358D01*
X008675Y025433D02*
X008750Y025358D01*
X008675Y025433D02*
X008675Y025584D01*
X008750Y025659D01*
X008825Y025659D01*
X009125Y025358D01*
X009125Y025659D01*
X009125Y025819D02*
X009050Y025819D01*
X008750Y026119D01*
X008675Y026119D01*
X008675Y025819D01*
X009675Y025894D02*
X009750Y025819D01*
X009675Y025894D02*
X009675Y026044D01*
X009750Y026119D01*
X009825Y026119D01*
X010125Y025819D01*
X010125Y026119D01*
X010125Y025659D02*
X010125Y025358D01*
X009825Y025659D01*
X009750Y025659D01*
X009675Y025584D01*
X009675Y025433D01*
X009750Y025358D01*
X010675Y025433D02*
X010750Y025358D01*
X010675Y025433D02*
X010675Y025584D01*
X010750Y025659D01*
X010825Y025659D01*
X011125Y025358D01*
X011125Y025659D01*
X011050Y025819D02*
X011125Y025894D01*
X011125Y026044D01*
X011050Y026119D01*
X010900Y026119D01*
X010825Y026044D01*
X010825Y025969D01*
X010900Y025819D01*
X010675Y025819D01*
X010675Y026119D01*
X011675Y026044D02*
X011675Y025894D01*
X011750Y025819D01*
X012050Y025819D01*
X012125Y025894D01*
X012125Y026044D01*
X012050Y026119D01*
X011750Y026119D01*
X011675Y026044D01*
X011750Y026279D02*
X011825Y026279D01*
X011900Y026354D01*
X011900Y026504D01*
X011975Y026579D01*
X012050Y026579D01*
X012125Y026504D01*
X012125Y026354D01*
X012050Y026279D01*
X011750Y026279D02*
X011675Y026354D01*
X011675Y026504D01*
X011750Y026579D01*
X011675Y026740D02*
X011675Y026890D01*
X011675Y026815D02*
X012125Y026815D01*
X012125Y026740D02*
X012125Y026890D01*
X012675Y026811D02*
X012750Y026886D01*
X013050Y026886D01*
X013125Y026811D01*
X013125Y026661D01*
X013050Y026586D01*
X012750Y026586D01*
X012675Y026661D01*
X012675Y026811D01*
X012750Y026426D02*
X012675Y026351D01*
X012675Y026201D01*
X012750Y026126D01*
X012825Y026126D01*
X012900Y026201D01*
X012900Y026351D01*
X012975Y026426D01*
X013050Y026426D01*
X013125Y026351D01*
X013125Y026201D01*
X013050Y026126D01*
X013125Y025969D02*
X013125Y025819D01*
X013125Y025894D02*
X012675Y025894D01*
X012675Y025819D02*
X012675Y025969D01*
X012675Y025659D02*
X013125Y025659D01*
X013125Y025358D02*
X012675Y025358D01*
X012825Y025508D01*
X012675Y025659D01*
X012125Y025659D02*
X011675Y025659D01*
X011825Y025508D01*
X011675Y025358D01*
X012125Y025358D01*
X013675Y025433D02*
X013750Y025358D01*
X013825Y025358D01*
X013900Y025433D01*
X013900Y025584D01*
X013975Y025659D01*
X014050Y025659D01*
X014125Y025584D01*
X014125Y025433D01*
X014050Y025358D01*
X013750Y025659D02*
X013675Y025584D01*
X013675Y025433D01*
X013750Y025819D02*
X013675Y025894D01*
X013675Y026044D01*
X013750Y026119D01*
X013675Y026279D02*
X014125Y026279D01*
X013975Y026279D02*
X013675Y026579D01*
X013900Y026354D02*
X014125Y026579D01*
X014050Y026119D02*
X014125Y026044D01*
X014125Y025894D01*
X014050Y025819D01*
X013750Y025819D01*
X014675Y025819D02*
X015125Y025819D01*
X015125Y026119D01*
X015050Y026279D02*
X014750Y026579D01*
X015050Y026579D01*
X015125Y026504D01*
X015125Y026354D01*
X015050Y026279D01*
X014750Y026279D01*
X014675Y026354D01*
X014675Y026504D01*
X014750Y026579D01*
X014675Y026119D02*
X014675Y025819D01*
X014750Y025659D02*
X014675Y025584D01*
X014675Y025433D01*
X014750Y025358D01*
X015050Y025358D01*
X015125Y025433D01*
X015125Y025584D01*
X015050Y025659D01*
X014900Y025819D02*
X014900Y025969D01*
X015675Y026119D02*
X015675Y025819D01*
X016125Y025819D01*
X016125Y026119D01*
X016125Y026279D02*
X016125Y026579D01*
X016125Y026429D02*
X015675Y026429D01*
X015825Y026279D01*
X015900Y025969D02*
X015900Y025819D01*
X016050Y025659D02*
X016125Y025584D01*
X016125Y025433D01*
X016050Y025358D01*
X015750Y025358D01*
X015675Y025433D01*
X015675Y025584D01*
X015750Y025659D01*
X016675Y025659D02*
X016675Y025358D01*
X016900Y025358D01*
X016825Y025508D01*
X016825Y025584D01*
X016900Y025659D01*
X017050Y025659D01*
X017125Y025584D01*
X017125Y025433D01*
X017050Y025358D01*
X017675Y025659D02*
X017750Y025508D01*
X017900Y025358D01*
X017900Y025584D01*
X017975Y025659D01*
X018050Y025659D01*
X018125Y025584D01*
X018125Y025433D01*
X018050Y025358D01*
X017900Y025358D01*
X018675Y025508D02*
X018825Y025358D01*
X018675Y025508D02*
X019125Y025508D01*
X019125Y025358D02*
X019125Y025659D01*
X019125Y025819D02*
X018825Y026119D01*
X018750Y026119D01*
X018675Y026044D01*
X018675Y025894D01*
X018750Y025819D01*
X019125Y025819D02*
X019125Y026119D01*
X019675Y026044D02*
X019675Y025894D01*
X019750Y025819D01*
X019900Y025969D02*
X019900Y026044D01*
X019975Y026119D01*
X020050Y026119D01*
X020125Y026044D01*
X020125Y025894D01*
X020050Y025819D01*
X020125Y025659D02*
X020125Y025358D01*
X020125Y025508D02*
X019675Y025508D01*
X019825Y025358D01*
X019900Y026044D02*
X019825Y026119D01*
X019750Y026119D01*
X019675Y026044D01*
X020675Y026119D02*
X020750Y025969D01*
X020900Y025819D01*
X020900Y026044D01*
X020975Y026119D01*
X021050Y026119D01*
X021125Y026044D01*
X021125Y025894D01*
X021050Y025819D01*
X020900Y025819D01*
X021125Y025659D02*
X021125Y025358D01*
X021125Y025508D02*
X020675Y025508D01*
X020825Y025358D01*
X021675Y025508D02*
X022125Y025508D01*
X022125Y025358D02*
X022125Y025659D01*
X022050Y025819D02*
X022125Y025894D01*
X022125Y026044D01*
X022050Y026119D01*
X021750Y026119D01*
X021675Y026044D01*
X021675Y025894D01*
X021750Y025819D01*
X021825Y025819D01*
X021900Y025894D01*
X021900Y026119D01*
X021675Y025508D02*
X021825Y025358D01*
X022675Y025433D02*
X022750Y025358D01*
X022675Y025433D02*
X022675Y025584D01*
X022750Y025659D01*
X022825Y025659D01*
X023125Y025358D01*
X023125Y025659D01*
X023050Y025819D02*
X022750Y026119D01*
X023050Y026119D01*
X023125Y026044D01*
X023125Y025894D01*
X023050Y025819D01*
X022750Y025819D01*
X022675Y025894D01*
X022675Y026044D01*
X022750Y026119D01*
X023675Y025969D02*
X024125Y025969D01*
X024125Y025819D02*
X024125Y026119D01*
X023825Y025819D02*
X023675Y025969D01*
X023750Y025659D02*
X023675Y025584D01*
X023675Y025433D01*
X023750Y025358D01*
X023750Y025659D02*
X023825Y025659D01*
X024125Y025358D01*
X024125Y025659D01*
X024675Y025584D02*
X024675Y025433D01*
X024750Y025358D01*
X025050Y025358D01*
X025125Y025433D01*
X025125Y025584D01*
X025050Y025659D01*
X024900Y025659D01*
X024900Y025508D01*
X024750Y025659D02*
X024675Y025584D01*
X024675Y025819D02*
X025125Y026119D01*
X024675Y026119D01*
X024675Y026279D02*
X024675Y026504D01*
X024750Y026579D01*
X025050Y026579D01*
X025125Y026504D01*
X025125Y026279D01*
X024675Y026279D01*
X024675Y025819D02*
X025125Y025819D01*
X021900Y023058D02*
X021600Y023058D01*
X021750Y022908D02*
X021750Y023209D01*
X021750Y020859D02*
X021750Y020558D01*
X019115Y021608D02*
X018815Y021608D01*
X019115Y021909D01*
X019115Y021984D01*
X019040Y022059D01*
X018890Y022059D01*
X018815Y021984D01*
X018654Y022059D02*
X018354Y021608D01*
X018194Y021834D02*
X017894Y021834D01*
X017734Y021909D02*
X017659Y021834D01*
X017433Y021834D01*
X017433Y022059D02*
X017433Y021608D01*
X017659Y021608D01*
X017734Y021683D01*
X017734Y021758D01*
X017659Y021834D01*
X017734Y021909D02*
X017734Y021984D01*
X017659Y022059D01*
X017433Y022059D01*
X017273Y022059D02*
X016973Y021608D01*
X016813Y021834D02*
X016513Y021834D01*
X016352Y021834D02*
X016052Y021834D01*
X016052Y021909D02*
X016202Y022059D01*
X016352Y021909D01*
X016352Y021608D01*
X016052Y021608D02*
X016052Y021909D01*
X015435Y021608D02*
X015285Y021608D01*
X015360Y021608D02*
X015360Y021909D01*
X015285Y021909D01*
X015360Y022059D02*
X015360Y022134D01*
X015125Y021984D02*
X015125Y021834D01*
X015050Y021758D01*
X014825Y021758D01*
X014825Y021608D02*
X014825Y022059D01*
X015050Y022059D01*
X015125Y021984D01*
X014204Y021909D02*
X014204Y021533D01*
X014129Y021458D01*
X014054Y021458D01*
X013979Y021608D02*
X014204Y021608D01*
X013979Y021608D02*
X013904Y021683D01*
X013904Y021909D01*
X013745Y021909D02*
X013670Y021909D01*
X013520Y021758D01*
X013520Y021608D02*
X013520Y021909D01*
X013362Y021909D02*
X013287Y021909D01*
X013136Y021758D01*
X013136Y021608D02*
X013136Y021909D01*
X012976Y021834D02*
X012976Y021758D01*
X012676Y021758D01*
X012676Y021683D02*
X012676Y021834D01*
X012751Y021909D01*
X012901Y021909D01*
X012976Y021834D01*
X012901Y021608D02*
X012751Y021608D01*
X012676Y021683D01*
X012516Y021683D02*
X012516Y021834D01*
X012441Y021909D01*
X012216Y021909D01*
X012216Y022059D02*
X012216Y021608D01*
X012441Y021608D01*
X012516Y021683D01*
X016663Y021683D02*
X016663Y021984D01*
X018044Y021984D02*
X018044Y021683D01*
X021200Y014629D02*
X021125Y014554D01*
X021125Y014404D01*
X021200Y014329D01*
X021500Y014329D01*
X021575Y014404D01*
X021575Y014554D01*
X021500Y014629D01*
X021350Y014629D01*
X021350Y014479D01*
X021125Y014169D02*
X021125Y013869D01*
X021575Y013869D01*
X021500Y013709D02*
X021575Y013634D01*
X021575Y013483D01*
X021500Y013408D01*
X021200Y013408D01*
X021125Y013483D01*
X021125Y013634D01*
X021200Y013709D01*
X021350Y013869D02*
X021350Y014019D01*
X021750Y013109D02*
X021750Y012808D01*
X021600Y012958D02*
X021900Y012958D01*
X021750Y011559D02*
X021750Y011258D01*
X021854Y009559D02*
X021854Y009258D01*
X022004Y009108D01*
X022154Y009258D01*
X022154Y009559D01*
X022315Y009484D02*
X022390Y009559D01*
X022540Y009559D01*
X022615Y009484D01*
X022615Y009409D01*
X022540Y009334D01*
X022615Y009258D01*
X022615Y009183D01*
X022540Y009108D01*
X022390Y009108D01*
X022315Y009183D01*
X022465Y009334D02*
X022540Y009334D01*
X022540Y008559D02*
X022315Y008559D01*
X022315Y008108D01*
X022540Y008108D01*
X022615Y008183D01*
X022615Y008484D01*
X022540Y008559D01*
X022154Y008559D02*
X022154Y008108D01*
X021854Y008559D01*
X021854Y008108D01*
X021694Y008183D02*
X021694Y008334D01*
X021544Y008334D01*
X021694Y008484D02*
X021619Y008559D01*
X021469Y008559D01*
X021394Y008484D01*
X021394Y008183D01*
X021469Y008108D01*
X021619Y008108D01*
X021694Y008183D01*
X021619Y009108D02*
X021469Y009108D01*
X021394Y009183D01*
X021544Y009334D02*
X021619Y009334D01*
X021694Y009258D01*
X021694Y009183D01*
X021619Y009108D01*
X021619Y009334D02*
X021694Y009409D01*
X021694Y009484D01*
X021619Y009559D01*
X021469Y009559D01*
X021394Y009484D01*
X001125Y025433D02*
X001050Y025358D01*
X001125Y025433D02*
X001125Y025584D01*
X001050Y025659D01*
X000975Y025659D01*
X000900Y025584D01*
X000900Y025433D01*
X000825Y025358D01*
X000750Y025358D01*
X000675Y025433D01*
X000675Y025584D01*
X000750Y025659D01*
X000675Y025819D02*
X000675Y026044D01*
X000750Y026119D01*
X001050Y026119D01*
X001125Y026044D01*
X001125Y025819D01*
X000675Y025819D01*
X000825Y026279D02*
X000675Y026429D01*
X000825Y026579D01*
X001125Y026579D01*
X000900Y026579D02*
X000900Y026279D01*
X000825Y026279D02*
X001125Y026279D01*
D11*
X001870Y014863D02*
X002030Y014863D01*
X002030Y014756D02*
X001870Y014756D01*
X001816Y014809D01*
X001870Y014863D01*
X001870Y014756D02*
X001816Y014703D01*
X001816Y014649D01*
X002030Y014649D01*
X001977Y014531D02*
X001870Y014531D01*
X001816Y014478D01*
X001816Y014371D01*
X001870Y014318D01*
X001977Y014318D01*
X002030Y014371D01*
X002030Y014478D01*
X001977Y014531D01*
X002030Y014200D02*
X002030Y014040D01*
X001977Y013986D01*
X001870Y013986D01*
X001816Y014040D01*
X001816Y014200D01*
X001977Y013874D02*
X002030Y013874D01*
X002030Y013821D01*
X001977Y013821D01*
X001977Y013874D01*
X002030Y013703D02*
X002030Y013543D01*
X001977Y013489D01*
X001870Y013489D01*
X001816Y013543D01*
X001816Y013703D01*
X001816Y013322D02*
X002030Y013322D01*
X002030Y013375D02*
X002030Y013268D01*
X002030Y013154D02*
X001977Y013101D01*
X001763Y013101D01*
X001816Y013154D02*
X001816Y013047D01*
X001870Y012929D02*
X001816Y012876D01*
X001816Y012769D01*
X001870Y012716D01*
X001977Y012716D01*
X002030Y012769D01*
X002030Y012876D01*
X001977Y012929D01*
X001870Y012929D01*
X001870Y012598D02*
X001816Y012544D01*
X001816Y012384D01*
X001710Y012384D02*
X002030Y012384D01*
X002030Y012544D01*
X001977Y012598D01*
X001870Y012598D01*
X001870Y012266D02*
X001816Y012213D01*
X001816Y012106D01*
X001870Y012053D01*
X001977Y012053D01*
X002030Y012106D01*
X002030Y012213D01*
X001977Y012266D01*
X001870Y012266D01*
X001816Y011937D02*
X001816Y011883D01*
X001923Y011776D01*
X002030Y011776D02*
X001816Y011776D01*
X001816Y011659D02*
X001816Y011498D01*
X001870Y011445D01*
X001977Y011445D01*
X002030Y011498D01*
X002030Y011659D01*
X002030Y011327D02*
X002030Y011167D01*
X001977Y011114D01*
X001923Y011167D01*
X001923Y011327D01*
X001870Y011327D02*
X002030Y011327D01*
X001870Y011327D02*
X001816Y011274D01*
X001816Y011167D01*
X001977Y011001D02*
X002030Y011001D01*
X002030Y010948D01*
X001977Y010948D01*
X001977Y011001D01*
X001977Y010830D02*
X001816Y010830D01*
X001977Y010830D02*
X002030Y010776D01*
X001977Y010723D01*
X002030Y010670D01*
X001977Y010616D01*
X001816Y010616D01*
X001816Y010498D02*
X001977Y010498D01*
X002030Y010445D01*
X001977Y010392D01*
X002030Y010338D01*
X001977Y010285D01*
X001816Y010285D01*
X001816Y010167D02*
X001977Y010167D01*
X002030Y010113D01*
X001977Y010060D01*
X002030Y010007D01*
X001977Y009953D01*
X001816Y009953D01*
X001380Y010003D02*
X001060Y010003D01*
X001060Y010163D01*
X001113Y010217D01*
X001220Y010217D01*
X001273Y010163D01*
X001273Y010003D01*
X001327Y010335D02*
X001273Y010388D01*
X001273Y010548D01*
X001220Y010548D02*
X001380Y010548D01*
X001380Y010388D01*
X001327Y010335D01*
X001166Y010388D02*
X001166Y010495D01*
X001220Y010548D01*
X001220Y010666D02*
X001166Y010720D01*
X001166Y010880D01*
X001273Y010826D02*
X001273Y010720D01*
X001220Y010666D01*
X001380Y010666D02*
X001380Y010826D01*
X001327Y010880D01*
X001273Y010826D01*
X001327Y010998D02*
X001273Y011051D01*
X001273Y011211D01*
X001220Y011211D02*
X001380Y011211D01*
X001380Y011051D01*
X001327Y010998D01*
X001166Y011051D02*
X001166Y011158D01*
X001220Y011211D01*
X001220Y011329D02*
X001166Y011383D01*
X001166Y011543D01*
X001060Y011543D02*
X001380Y011543D01*
X001380Y011383D01*
X001327Y011329D01*
X001220Y011329D01*
X001220Y011661D02*
X001166Y011714D01*
X001166Y011821D01*
X001220Y011874D01*
X001273Y011874D01*
X001273Y011661D01*
X001220Y011661D02*
X001327Y011661D01*
X001380Y011714D01*
X001380Y011821D01*
X001380Y011992D02*
X001166Y011992D01*
X001166Y012152D01*
X001220Y012206D01*
X001380Y012206D01*
X001327Y012324D02*
X001273Y012377D01*
X001273Y012537D01*
X001220Y012537D02*
X001380Y012537D01*
X001380Y012377D01*
X001327Y012324D01*
X001166Y012377D02*
X001166Y012484D01*
X001220Y012537D01*
X001327Y012709D02*
X001380Y012709D01*
X001380Y012762D01*
X001327Y012762D01*
X001327Y012709D01*
X001380Y012762D02*
X001487Y012655D01*
X001327Y013208D02*
X001113Y013208D01*
X001060Y013261D01*
X001060Y013368D01*
X001113Y013421D01*
X001166Y013539D02*
X001060Y013646D01*
X001166Y013753D01*
X001380Y013753D01*
X001220Y013753D02*
X001220Y013539D01*
X001166Y013539D02*
X001380Y013539D01*
X001327Y013421D02*
X001380Y013368D01*
X001380Y013261D01*
X001327Y013208D01*
X001656Y013322D02*
X001710Y013322D01*
X001816Y013322D02*
X001816Y013268D01*
X000780Y012705D02*
X000780Y012598D01*
X000727Y012545D01*
X000513Y012545D01*
X000460Y012598D01*
X000460Y012705D01*
X000513Y012758D01*
X000727Y012758D02*
X000780Y012705D01*
X000780Y012430D02*
X000780Y012324D01*
X000780Y012377D02*
X000460Y012377D01*
X000460Y012324D02*
X000460Y012430D01*
X000460Y012206D02*
X000460Y011992D01*
X000460Y012099D02*
X000780Y012099D01*
X000727Y011874D02*
X000780Y011821D01*
X000780Y011714D01*
X000727Y011661D01*
X000513Y011661D01*
X000460Y011714D01*
X000460Y011821D01*
X000513Y011874D01*
X000727Y011874D01*
X000727Y011543D02*
X000780Y011489D01*
X000780Y011329D01*
X000460Y011329D01*
X000460Y011489D01*
X000513Y011543D01*
X000566Y011543D01*
X000620Y011489D01*
X000620Y011329D01*
X000727Y011211D02*
X000513Y011211D01*
X000460Y011158D01*
X000460Y011051D01*
X000513Y010998D01*
X000727Y010998D01*
X000780Y011051D01*
X000780Y011158D01*
X000727Y011211D01*
X000620Y011489D02*
X000673Y011543D01*
X000727Y011543D01*
X000780Y010880D02*
X000673Y010773D01*
X000673Y010826D02*
X000673Y010666D01*
X000780Y010666D02*
X000460Y010666D01*
X000460Y010826D01*
X000513Y010880D01*
X000620Y010880D01*
X000673Y010826D01*
X000727Y010548D02*
X000780Y010495D01*
X000780Y010388D01*
X000727Y010335D01*
X000513Y010335D01*
X000460Y010388D01*
X000460Y010495D01*
X000513Y010548D01*
X000566Y010217D02*
X000460Y010110D01*
X000566Y010003D01*
X000780Y010003D01*
X000620Y010003D02*
X000620Y010217D01*
X000566Y010217D02*
X000780Y010217D01*
X021270Y013512D02*
X021323Y013459D01*
X021537Y013459D01*
X021590Y013512D01*
X021590Y013619D01*
X021537Y013672D01*
X021590Y013790D02*
X021270Y013790D01*
X021270Y014004D01*
X021323Y014122D02*
X021537Y014122D01*
X021590Y014175D01*
X021590Y014282D01*
X021537Y014335D01*
X021430Y014335D01*
X021430Y014229D01*
X021323Y014335D02*
X021270Y014282D01*
X021270Y014175D01*
X021323Y014122D01*
X021430Y013897D02*
X021430Y013790D01*
X021323Y013672D02*
X021270Y013619D01*
X021270Y013512D01*
X021570Y012442D02*
X021570Y012322D01*
X021570Y012382D02*
X021930Y012382D01*
X021930Y012322D02*
X021930Y012442D01*
X021870Y012194D02*
X021630Y012194D01*
X021570Y012133D01*
X021570Y011953D01*
X021930Y011953D01*
X021930Y012133D01*
X021870Y012194D01*
X022300Y010762D02*
X022300Y010522D01*
X022120Y010702D01*
X022480Y010702D01*
X022480Y010394D02*
X022360Y010273D01*
X022360Y010333D02*
X022360Y010153D01*
X022480Y010153D02*
X022120Y010153D01*
X022120Y010333D01*
X022180Y010394D01*
X022300Y010394D01*
X022360Y010333D01*
X022030Y014803D02*
X021670Y014803D01*
X021670Y014983D01*
X021730Y015044D01*
X021850Y015044D01*
X021910Y014983D01*
X021910Y014803D01*
X021910Y014923D02*
X022030Y015044D01*
X021970Y015172D02*
X022030Y015232D01*
X022030Y015352D01*
X021970Y015412D01*
X021910Y015412D01*
X021850Y015352D01*
X021850Y015292D01*
X021850Y015352D02*
X021790Y015412D01*
X021730Y015412D01*
X021670Y015352D01*
X021670Y015232D01*
X021730Y015172D01*
X021670Y016103D02*
X021670Y016283D01*
X021730Y016344D01*
X021850Y016344D01*
X021910Y016283D01*
X021910Y016103D01*
X022030Y016103D02*
X021670Y016103D01*
X021910Y016223D02*
X022030Y016344D01*
X022030Y016472D02*
X022030Y016712D01*
X022030Y016592D02*
X021670Y016592D01*
X021790Y016472D01*
X021910Y017203D02*
X021910Y017383D01*
X021850Y017444D01*
X021730Y017444D01*
X021670Y017383D01*
X021670Y017203D01*
X022030Y017203D01*
X021910Y017323D02*
X022030Y017444D01*
X022030Y017572D02*
X021790Y017812D01*
X021730Y017812D01*
X021670Y017752D01*
X021670Y017632D01*
X021730Y017572D01*
X022030Y017572D02*
X022030Y017812D01*
X022030Y019153D02*
X022150Y019153D01*
X022210Y019213D01*
X022338Y019153D02*
X022579Y019153D01*
X022458Y019153D02*
X022458Y019514D01*
X022338Y019394D01*
X022210Y019454D02*
X022150Y019514D01*
X022030Y019514D01*
X021970Y019454D01*
X021970Y019213D01*
X022030Y019153D01*
X021930Y021203D02*
X021570Y021203D01*
X021570Y021383D01*
X021630Y021444D01*
X021870Y021444D01*
X021930Y021383D01*
X021930Y021203D01*
X021930Y021572D02*
X021930Y021692D01*
X021930Y021632D02*
X021570Y021632D01*
X021570Y021572D02*
X021570Y021692D01*
X021630Y022003D02*
X021870Y022003D01*
X021930Y022063D01*
X021930Y022183D01*
X021870Y022244D01*
X021930Y022372D02*
X021930Y022492D01*
X021930Y022432D02*
X021570Y022432D01*
X021570Y022372D02*
X021570Y022492D01*
X021630Y022244D02*
X021570Y022183D01*
X021570Y022063D01*
X021630Y022003D01*
X025170Y017335D02*
X025530Y017335D01*
X025530Y017095D02*
X025170Y017095D01*
X025290Y017215D01*
X025170Y017335D01*
X025230Y016967D02*
X025170Y016907D01*
X025170Y016787D01*
X025230Y016727D01*
X025470Y016727D01*
X025530Y016787D01*
X025530Y016907D01*
X025470Y016967D01*
X025230Y016967D01*
X025230Y016598D02*
X025350Y016598D01*
X025410Y016538D01*
X025410Y016358D01*
X025530Y016358D02*
X025170Y016358D01*
X025170Y016538D01*
X025230Y016598D01*
X025410Y016478D02*
X025530Y016598D01*
X025350Y016230D02*
X025410Y016170D01*
X025410Y015990D01*
X025530Y015990D02*
X025170Y015990D01*
X025170Y016170D01*
X025230Y016230D01*
X025350Y016230D01*
X025530Y015862D02*
X025530Y015622D01*
X025170Y015622D01*
X025170Y015862D01*
X025350Y015742D02*
X025350Y015622D01*
X025530Y015494D02*
X025530Y015253D01*
X025170Y015253D01*
X025170Y015494D01*
X025350Y015373D02*
X025350Y015253D01*
D12*
X021050Y015783D02*
X002850Y015783D01*
D13*
X002896Y021598D02*
X002851Y021598D01*
X002851Y021643D01*
X002896Y021643D01*
X002896Y021598D01*
X002989Y021643D02*
X003169Y021824D01*
X003169Y021643D01*
X003124Y021598D01*
X003034Y021598D01*
X002989Y021643D01*
X002989Y021824D01*
X003034Y021869D01*
X003124Y021869D01*
X003169Y021824D01*
X002755Y021598D02*
X002574Y021598D01*
X002664Y021598D02*
X002664Y021869D01*
X002574Y021778D01*
X002478Y021778D02*
X002388Y021598D01*
X002298Y021778D01*
D14*
X003045Y026703D02*
X003795Y026703D01*
D15*
X002945Y027003D02*
X002945Y029003D01*
X022945Y029003D01*
X022945Y027003D01*
X002945Y027003D01*
X021706Y014198D02*
X021706Y013568D01*
X022494Y013568D02*
X022494Y014198D01*
X022672Y014152D02*
X024247Y014152D01*
X023656Y013817D02*
X022672Y013817D01*
X022672Y014152D01*
X023656Y013817D02*
X023656Y013266D01*
X025625Y013463D02*
X025625Y010904D01*
X024247Y010215D02*
X022672Y010215D01*
X022672Y010549D01*
X023656Y010549D01*
X023656Y011101D01*
X024247Y019521D02*
X022672Y019521D01*
X022672Y019856D01*
X023656Y019856D01*
X023656Y020407D01*
X025625Y020998D02*
X025625Y023557D01*
X024247Y024246D02*
X022672Y024246D01*
X022672Y023911D01*
X023656Y023911D01*
X023656Y023360D01*
D16*
X023139Y017288D02*
X023139Y015278D01*
X024999Y015278D02*
X024999Y017288D01*
D17*
X023319Y014388D03*
D18*
X022400Y014983D03*
X022400Y016233D03*
X022400Y017483D03*
X021750Y010333D03*
D19*
X022700Y018771D02*
X022700Y018795D01*
D20*
X001372Y014519D02*
X001370Y014528D01*
X001369Y014533D01*
X001368Y014538D01*
X001367Y014542D01*
X001366Y014547D01*
X001364Y014552D01*
X001363Y014556D01*
X001362Y014560D01*
X001361Y014565D01*
X001360Y014569D01*
X001359Y014573D01*
X001358Y014577D01*
X001357Y014581D01*
X001356Y014584D01*
X001355Y014588D01*
X001354Y014592D01*
X001353Y014595D01*
X001352Y014598D01*
X001351Y014601D01*
X001350Y014604D01*
X001349Y014607D01*
X001349Y014609D01*
X001348Y014612D01*
X001347Y014614D01*
X001346Y014616D01*
X001346Y014617D01*
X001345Y014618D01*
X001345Y014620D01*
X001344Y014620D01*
X001344Y014621D01*
X001342Y014621D01*
X001341Y014622D01*
X001339Y014622D01*
X001336Y014622D01*
X001334Y014622D01*
X001331Y014622D01*
X001327Y014622D01*
X001324Y014621D01*
X001320Y014621D01*
X001317Y014620D01*
X001313Y014620D01*
X001309Y014619D01*
X001306Y014618D01*
X001302Y014617D01*
X001298Y014617D01*
X001295Y014616D01*
X001291Y014615D01*
X001288Y014614D01*
X001285Y014613D01*
X001283Y014612D01*
X001278Y014610D01*
X001277Y014609D01*
X001276Y014608D01*
X001275Y014607D01*
X001275Y014605D01*
X001274Y014603D01*
X001274Y014600D01*
X001274Y014597D01*
X001274Y014594D01*
X001274Y014590D01*
X001274Y014587D01*
X001274Y014582D01*
X001274Y014578D01*
X001274Y014574D01*
X001275Y014570D01*
X001275Y014565D01*
X001275Y014561D01*
X001276Y014557D01*
X001276Y014553D01*
X001276Y014549D01*
X001276Y014546D01*
X001277Y014542D01*
X001277Y014539D01*
X001277Y014534D01*
X001276Y014532D01*
X001276Y014531D01*
X001276Y014531D01*
X001275Y014530D01*
X001274Y014529D01*
X001273Y014528D01*
X001273Y014527D01*
X001272Y014527D01*
X001271Y014526D01*
X001270Y014525D01*
X001269Y014525D01*
X001268Y014524D01*
X001266Y014523D01*
X001265Y014522D01*
X001264Y014521D01*
X001263Y014521D01*
X001262Y014520D01*
X001261Y014519D01*
X001260Y014518D01*
X001259Y014517D01*
X001257Y014516D01*
X001256Y014514D01*
X001255Y014513D01*
X001254Y014512D01*
X001253Y014511D01*
X001253Y014510D01*
X001252Y014508D01*
X001251Y014507D01*
X001251Y014506D01*
X001251Y014504D01*
X001250Y014503D01*
X001250Y014501D01*
X001250Y014499D01*
X001249Y014498D01*
X001249Y014496D01*
X001249Y014494D01*
X001249Y014492D01*
X001248Y014490D01*
X001248Y014488D01*
X001248Y014486D01*
X001248Y014483D01*
X001248Y014481D01*
X001248Y014479D01*
X001248Y014476D01*
X001248Y014474D01*
X001248Y014471D01*
X001248Y014468D01*
X001248Y014466D01*
X001248Y014463D01*
X001249Y014460D01*
X001249Y014457D01*
X001249Y014455D01*
X001249Y014452D01*
X001249Y014449D01*
X001249Y014447D01*
X001250Y014444D01*
X001250Y014442D01*
X001250Y014440D01*
X001251Y014438D01*
X001251Y014435D01*
X001252Y014433D01*
X001252Y014432D01*
X001253Y014430D01*
X001253Y014428D01*
X001254Y014427D01*
X001255Y014425D01*
X001255Y014424D01*
X001256Y014423D01*
X001257Y014422D01*
X001258Y014422D01*
X001259Y014421D01*
X001260Y014421D01*
X001261Y014421D01*
X001262Y014421D01*
X001264Y014421D01*
X001266Y014421D01*
X001268Y014422D01*
X001270Y014422D01*
X001272Y014422D01*
X001275Y014423D01*
X001277Y014424D01*
X001280Y014424D01*
X001283Y014425D01*
X001286Y014426D01*
X001289Y014427D01*
X001292Y014428D01*
X001295Y014429D01*
X001299Y014430D01*
X001302Y014431D01*
X001306Y014432D01*
X001309Y014433D01*
X001316Y014436D01*
X001320Y014437D01*
X001324Y014438D01*
X001327Y014440D01*
X001331Y014441D01*
X001334Y014442D01*
X001338Y014444D01*
X001341Y014445D01*
X001344Y014446D01*
X001347Y014447D01*
X001349Y014448D01*
X001352Y014450D01*
X001355Y014451D01*
X001357Y014452D01*
X001359Y014453D01*
X001362Y014454D01*
X001364Y014455D01*
X001365Y014457D01*
X001367Y014458D01*
X001369Y014459D01*
X001372Y014461D01*
X001373Y014462D01*
X001374Y014463D01*
X001375Y014465D01*
X001376Y014466D01*
X001377Y014467D01*
X001377Y014468D01*
X001377Y014469D01*
X001378Y014471D01*
X001378Y014473D01*
X001378Y014475D01*
X001378Y014477D01*
X001377Y014480D01*
X001377Y014483D01*
X001377Y014487D01*
X001377Y014490D01*
X001376Y014494D01*
X001375Y014501D01*
X001374Y014506D01*
X001373Y014510D01*
X001373Y014514D01*
X001372Y014519D01*
X001367Y014511D02*
X001272Y014511D01*
X001260Y014503D02*
X001260Y014433D01*
X001270Y014433D01*
X001360Y014473D01*
X001370Y014503D01*
X001330Y014613D01*
X001290Y014603D01*
X001290Y014523D01*
X001260Y014503D01*
X001260Y014493D02*
X001367Y014493D01*
X001360Y014474D02*
X001260Y014474D01*
X001260Y014456D02*
X001321Y014456D01*
X001279Y014437D02*
X001260Y014437D01*
X001228Y014439D02*
X001227Y014449D01*
X001226Y014458D01*
X001225Y014468D01*
X001223Y014486D01*
X001222Y014494D01*
X001221Y014502D01*
X001220Y014510D01*
X001219Y014517D01*
X001217Y014524D01*
X001216Y014531D01*
X001214Y014536D01*
X001213Y014541D01*
X001211Y014546D01*
X001209Y014550D01*
X001206Y014552D01*
X001204Y014555D01*
X001202Y014557D01*
X001198Y014559D01*
X001195Y014561D01*
X001191Y014562D01*
X001187Y014563D01*
X001183Y014564D01*
X001178Y014565D01*
X001173Y014566D01*
X001168Y014566D01*
X001163Y014566D01*
X001158Y014566D01*
X001152Y014566D01*
X001147Y014566D01*
X001141Y014566D01*
X001135Y014566D01*
X001130Y014565D01*
X001124Y014565D01*
X001118Y014564D01*
X001112Y014563D01*
X001107Y014562D01*
X001101Y014562D01*
X001096Y014561D01*
X001090Y014560D01*
X001084Y014559D01*
X001078Y014558D01*
X001073Y014557D01*
X001067Y014556D01*
X001062Y014554D01*
X001056Y014553D01*
X001051Y014552D01*
X001046Y014551D01*
X001041Y014550D01*
X001037Y014548D01*
X001032Y014547D01*
X001028Y014545D01*
X001024Y014544D01*
X001020Y014542D01*
X001016Y014541D01*
X001013Y014539D01*
X001010Y014537D01*
X001007Y014536D01*
X001004Y014534D01*
X001001Y014532D01*
X000999Y014530D01*
X000997Y014528D01*
X000995Y014526D01*
X000994Y014524D01*
X000992Y014521D01*
X000991Y014517D01*
X000990Y014512D01*
X000990Y014507D01*
X000989Y014502D01*
X000989Y014495D01*
X000989Y014489D01*
X000990Y014481D01*
X000990Y014474D01*
X000991Y014466D01*
X000991Y014457D01*
X000992Y014448D01*
X000993Y014439D01*
X000994Y014430D01*
X000995Y014420D01*
X000997Y014410D01*
X000998Y014400D01*
X000999Y014390D01*
X001000Y014380D01*
X001002Y014369D01*
X001003Y014359D01*
X001004Y014349D01*
X001006Y014338D01*
X001007Y014328D01*
X001008Y014318D01*
X001009Y014309D01*
X001010Y014300D01*
X001011Y014291D01*
X001012Y014283D01*
X001013Y014274D01*
X001014Y014266D01*
X001015Y014258D01*
X001016Y014250D01*
X001017Y014243D01*
X001018Y014236D01*
X001020Y014229D01*
X001021Y014223D01*
X001022Y014217D01*
X001023Y014211D01*
X001025Y014206D01*
X001026Y014201D01*
X001028Y014197D01*
X001029Y014193D01*
X001031Y014189D01*
X001033Y014187D01*
X001034Y014184D01*
X001036Y014182D01*
X001038Y014181D01*
X001041Y014180D01*
X001043Y014179D01*
X001046Y014178D01*
X001049Y014176D01*
X001053Y014175D01*
X001056Y014175D01*
X001060Y014174D01*
X001064Y014173D01*
X001068Y014172D01*
X001072Y014172D01*
X001076Y014171D01*
X001084Y014170D01*
X001089Y014170D01*
X001094Y014169D01*
X001098Y014169D01*
X001103Y014169D01*
X001108Y014169D01*
X001113Y014169D01*
X001118Y014169D01*
X001124Y014169D01*
X001129Y014169D01*
X001134Y014169D01*
X001140Y014170D01*
X001146Y014170D01*
X001151Y014170D01*
X001157Y014171D01*
X001163Y014172D01*
X001168Y014172D01*
X001174Y014173D01*
X001180Y014174D01*
X001185Y014175D01*
X001190Y014176D01*
X001195Y014177D01*
X001200Y014178D01*
X001205Y014180D01*
X001210Y014181D01*
X001214Y014183D01*
X001218Y014184D01*
X001222Y014186D01*
X001226Y014188D01*
X001229Y014190D01*
X001232Y014191D01*
X001235Y014193D01*
X001239Y014198D01*
X001241Y014200D01*
X001242Y014202D01*
X001243Y014204D01*
X001243Y014206D01*
X001243Y014209D01*
X001244Y014212D01*
X001244Y014216D01*
X001244Y014221D01*
X001244Y014225D01*
X001244Y014231D01*
X001244Y014237D01*
X001244Y014242D01*
X001244Y014249D01*
X001244Y014256D01*
X001243Y014263D01*
X001243Y014271D01*
X001242Y014279D01*
X001242Y014287D01*
X001241Y014295D01*
X001241Y014304D01*
X001240Y014313D01*
X001239Y014322D01*
X001238Y014331D01*
X001237Y014341D01*
X001236Y014350D01*
X001235Y014360D01*
X001234Y014370D01*
X001233Y014379D01*
X001232Y014389D01*
X001231Y014399D01*
X001230Y014409D01*
X001230Y014419D01*
X001229Y014429D01*
X001228Y014439D01*
X001212Y014437D02*
X001114Y014437D01*
X001114Y014424D02*
X001118Y014424D01*
X001122Y014425D01*
X001125Y014425D01*
X001129Y014424D01*
X001133Y014424D01*
X001137Y014423D01*
X001140Y014422D01*
X001144Y014421D01*
X001147Y014419D01*
X001150Y014418D01*
X001154Y014416D01*
X001157Y014414D01*
X001162Y014409D01*
X001165Y014407D01*
X001167Y014404D01*
X001170Y014401D01*
X001172Y014398D01*
X001175Y014391D01*
X001177Y014388D01*
X001178Y014384D01*
X001179Y014380D01*
X001180Y014376D01*
X001180Y014372D01*
X001180Y014368D01*
X001180Y014365D01*
X001180Y014361D01*
X001180Y014357D01*
X001179Y014353D01*
X001178Y014350D01*
X001177Y014346D01*
X001175Y014343D01*
X001173Y014339D01*
X001172Y014336D01*
X001169Y014333D01*
X001167Y014330D01*
X001165Y014327D01*
X001162Y014325D01*
X001159Y014322D01*
X001156Y014320D01*
X001153Y014318D01*
X001150Y014316D01*
X001147Y014314D01*
X001143Y014313D01*
X001140Y014312D01*
X001136Y014311D01*
X001132Y014310D01*
X001128Y014310D01*
X001124Y014309D01*
X001120Y014309D01*
X001117Y014310D01*
X001113Y014310D01*
X001109Y014311D01*
X001106Y014312D01*
X001102Y014313D01*
X001099Y014315D01*
X001095Y014316D01*
X001092Y014318D01*
X001089Y014320D01*
X001084Y014325D01*
X001081Y014328D01*
X001079Y014331D01*
X001076Y014333D01*
X001074Y014336D01*
X001072Y014340D01*
X001071Y014343D01*
X001069Y014347D01*
X001068Y014350D01*
X001067Y014354D01*
X001066Y014358D01*
X001066Y014362D01*
X001065Y014366D01*
X001065Y014370D01*
X001066Y014373D01*
X001066Y014377D01*
X001067Y014381D01*
X001068Y014384D01*
X001069Y014388D01*
X001071Y014391D01*
X001073Y014395D01*
X001074Y014398D01*
X001076Y014401D01*
X001079Y014404D01*
X001081Y014407D01*
X001084Y014409D01*
X001087Y014412D01*
X001089Y014414D01*
X001092Y014416D01*
X001096Y014418D01*
X001099Y014420D01*
X001103Y014421D01*
X001106Y014422D01*
X001110Y014423D01*
X001114Y014424D01*
X001087Y014437D02*
X001005Y014437D01*
X001006Y014419D02*
X001078Y014419D01*
X001069Y014400D02*
X001007Y014400D01*
X001008Y014382D02*
X001059Y014382D01*
X001050Y014363D02*
X001009Y014363D01*
X001010Y014353D02*
X001050Y014363D01*
X001090Y014443D01*
X001170Y014423D01*
X001190Y014323D01*
X001110Y014293D01*
X001060Y014353D01*
X001010Y014343D01*
X001040Y014193D01*
X001130Y014173D01*
X001240Y014203D01*
X001200Y014543D01*
X001160Y014563D01*
X001070Y014553D01*
X001000Y014523D01*
X001010Y014353D01*
X001018Y014345D02*
X001067Y014345D01*
X001082Y014326D02*
X001013Y014326D01*
X001017Y014308D02*
X001098Y014308D01*
X001149Y014308D02*
X001228Y014308D01*
X001226Y014326D02*
X001189Y014326D01*
X001186Y014345D02*
X001223Y014345D01*
X001221Y014363D02*
X001182Y014363D01*
X001178Y014382D02*
X001219Y014382D01*
X001217Y014400D02*
X001175Y014400D01*
X001171Y014419D02*
X001215Y014419D01*
X001210Y014456D02*
X001004Y014456D01*
X001003Y014474D02*
X001208Y014474D01*
X001206Y014493D02*
X001002Y014493D01*
X001001Y014511D02*
X001204Y014511D01*
X001202Y014530D02*
X001015Y014530D01*
X001059Y014548D02*
X001190Y014548D01*
X001274Y014529D02*
X001274Y014529D01*
X001290Y014530D02*
X001360Y014530D01*
X001354Y014548D02*
X001290Y014548D01*
X001290Y014567D02*
X001347Y014567D01*
X001340Y014585D02*
X001290Y014585D01*
X001292Y014604D02*
X001333Y014604D01*
X001185Y014702D02*
X001191Y014711D01*
X001197Y014720D01*
X001202Y014728D01*
X001212Y014743D01*
X001216Y014749D01*
X001218Y014754D01*
X001221Y014759D01*
X001223Y014762D01*
X001223Y014763D01*
X001223Y014765D01*
X001223Y014766D01*
X001222Y014768D01*
X001221Y014770D01*
X001220Y014772D01*
X001219Y014775D01*
X001218Y014777D01*
X001216Y014779D01*
X001214Y014782D01*
X001212Y014785D01*
X001210Y014787D01*
X001206Y014792D01*
X001203Y014795D01*
X001201Y014798D01*
X001198Y014800D01*
X001196Y014803D01*
X001193Y014805D01*
X001190Y014807D01*
X001188Y014810D01*
X001185Y014811D01*
X001183Y014813D01*
X001180Y014815D01*
X001177Y014816D01*
X001175Y014818D01*
X001172Y014819D01*
X001167Y014822D01*
X001164Y014823D01*
X001161Y014824D01*
X001158Y014825D01*
X001155Y014826D01*
X001152Y014827D01*
X001148Y014828D01*
X001145Y014829D01*
X001142Y014830D01*
X001139Y014831D01*
X001135Y014832D01*
X001132Y014832D01*
X001129Y014833D01*
X001126Y014833D01*
X001123Y014833D01*
X001120Y014833D01*
X001117Y014833D01*
X001115Y014833D01*
X001112Y014833D01*
X001109Y014833D01*
X001107Y014832D01*
X001104Y014831D01*
X001102Y014830D01*
X001100Y014828D01*
X001098Y014826D01*
X001096Y014823D01*
X001094Y014820D01*
X001092Y014817D01*
X001090Y014813D01*
X001088Y014809D01*
X001086Y014806D01*
X001084Y014802D01*
X001083Y014798D01*
X001081Y014794D01*
X001079Y014790D01*
X001078Y014786D01*
X001076Y014782D01*
X001074Y014778D01*
X001071Y014772D01*
X001070Y014769D01*
X001068Y014767D01*
X001067Y014765D01*
X001065Y014763D01*
X001064Y014762D01*
X001062Y014761D01*
X001060Y014761D01*
X001059Y014760D01*
X001057Y014760D01*
X001056Y014760D01*
X001053Y014760D01*
X001051Y014760D01*
X001049Y014760D01*
X001048Y014760D01*
X001046Y014760D01*
X001044Y014761D01*
X001043Y014761D01*
X001041Y014761D01*
X001040Y014761D01*
X001038Y014761D01*
X001036Y014761D01*
X001033Y014761D01*
X001031Y014761D01*
X001030Y014761D01*
X001028Y014760D01*
X001027Y014759D01*
X001025Y014758D01*
X001023Y014757D01*
X001021Y014756D01*
X001020Y014754D01*
X001018Y014752D01*
X001017Y014749D01*
X001015Y014746D01*
X001014Y014743D01*
X001012Y014740D01*
X001011Y014737D01*
X001010Y014733D01*
X001009Y014730D01*
X001008Y014726D01*
X001007Y014723D01*
X001006Y014719D01*
X001006Y014715D01*
X001005Y014712D01*
X001005Y014709D01*
X001004Y014705D01*
X001004Y014702D01*
X001004Y014699D01*
X001004Y014697D01*
X001005Y014694D01*
X001005Y014692D01*
X001006Y014691D01*
X001007Y014689D01*
X001007Y014688D01*
X001008Y014687D01*
X001009Y014686D01*
X001010Y014685D01*
X001012Y014684D01*
X001013Y014683D01*
X001014Y014683D01*
X001015Y014682D01*
X001016Y014681D01*
X001018Y014681D01*
X001020Y014680D01*
X001021Y014680D01*
X001022Y014679D01*
X001024Y014679D01*
X001025Y014678D01*
X001026Y014678D01*
X001027Y014677D01*
X001028Y014676D01*
X001028Y014676D01*
X001029Y014675D01*
X001030Y014674D01*
X001031Y014671D01*
X001030Y014669D01*
X001029Y014667D01*
X001029Y014664D01*
X001027Y014661D01*
X001025Y014657D01*
X001023Y014653D01*
X001021Y014649D01*
X001019Y014645D01*
X001017Y014641D01*
X001014Y014636D01*
X001012Y014632D01*
X001009Y014627D01*
X001007Y014622D01*
X001005Y014618D01*
X001003Y014613D01*
X001002Y014609D01*
X000999Y014601D01*
X000999Y014598D01*
X000999Y014594D01*
X000999Y014591D01*
X001000Y014589D01*
X001002Y014587D01*
X001003Y014586D01*
X001004Y014585D01*
X001006Y014584D01*
X001007Y014583D01*
X001009Y014583D01*
X001011Y014582D01*
X001013Y014582D01*
X001016Y014582D01*
X001018Y014582D01*
X001020Y014582D01*
X001023Y014582D01*
X001026Y014582D01*
X001028Y014582D01*
X001031Y014582D01*
X001034Y014583D01*
X001037Y014583D01*
X001040Y014583D01*
X001043Y014584D01*
X001046Y014584D01*
X001049Y014585D01*
X001053Y014585D01*
X001056Y014586D01*
X001059Y014586D01*
X001062Y014587D01*
X001065Y014587D01*
X001068Y014588D01*
X001070Y014588D01*
X001073Y014589D01*
X001075Y014589D01*
X001077Y014589D01*
X001080Y014590D01*
X001082Y014590D01*
X001083Y014590D01*
X001085Y014591D01*
X001087Y014591D01*
X001089Y014592D01*
X001091Y014592D01*
X001092Y014593D01*
X001094Y014593D01*
X001096Y014594D01*
X001098Y014595D01*
X001101Y014596D01*
X001103Y014597D01*
X001105Y014599D01*
X001107Y014600D01*
X001109Y014601D01*
X001111Y014603D01*
X001113Y014604D01*
X001116Y014607D01*
X001120Y014612D01*
X001124Y014617D01*
X001129Y014623D01*
X001140Y014638D01*
X001146Y014646D01*
X001159Y014664D01*
X001166Y014674D01*
X001172Y014683D01*
X001179Y014692D01*
X001185Y014702D01*
X001177Y014715D02*
X001019Y014715D01*
X001026Y014733D02*
X001189Y014733D01*
X001202Y014752D02*
X001064Y014752D01*
X001070Y014753D02*
X001030Y014743D01*
X001010Y014693D01*
X001040Y014673D01*
X001010Y014593D01*
X001100Y014603D01*
X001210Y014763D01*
X001160Y014813D01*
X001110Y014813D01*
X001070Y014753D01*
X001081Y014770D02*
X001203Y014770D01*
X001184Y014789D02*
X001094Y014789D01*
X001106Y014807D02*
X001166Y014807D01*
X001164Y014696D02*
X001011Y014696D01*
X001033Y014678D02*
X001151Y014678D01*
X001139Y014659D02*
X001035Y014659D01*
X001028Y014641D02*
X001126Y014641D01*
X001113Y014622D02*
X001021Y014622D01*
X001014Y014604D02*
X001100Y014604D01*
X000941Y014566D02*
X000938Y014575D01*
X000936Y014583D01*
X000933Y014591D01*
X000931Y014597D01*
X000929Y014602D01*
X000926Y014608D01*
X000924Y014612D01*
X000922Y014614D01*
X000920Y014617D01*
X000918Y014619D01*
X000915Y014620D01*
X000913Y014622D01*
X000910Y014623D01*
X000907Y014625D01*
X000904Y014626D01*
X000900Y014627D01*
X000897Y014628D01*
X000893Y014628D01*
X000890Y014629D01*
X000886Y014629D01*
X000882Y014629D01*
X000878Y014630D01*
X000874Y014630D01*
X000869Y014630D01*
X000865Y014629D01*
X000856Y014629D01*
X000851Y014628D01*
X000847Y014628D01*
X000842Y014627D01*
X000837Y014627D01*
X000832Y014626D01*
X000827Y014625D01*
X000821Y014624D01*
X000816Y014623D01*
X000811Y014622D01*
X000805Y014621D01*
X000800Y014619D01*
X000795Y014618D01*
X000790Y014617D01*
X000785Y014615D01*
X000780Y014614D01*
X000776Y014612D01*
X000772Y014611D01*
X000767Y014610D01*
X000763Y014608D01*
X000756Y014606D01*
X000752Y014605D01*
X000750Y014604D01*
X000747Y014603D01*
X000744Y014603D01*
X000742Y014602D01*
X000740Y014602D01*
X000739Y014602D01*
X000738Y014602D01*
X000736Y014602D01*
X000735Y014603D01*
X000734Y014605D01*
X000732Y014606D01*
X000731Y014608D01*
X000729Y014609D01*
X000728Y014611D01*
X000726Y014613D01*
X000725Y014616D01*
X000723Y014618D01*
X000721Y014620D01*
X000718Y014622D01*
X000716Y014625D01*
X000713Y014627D01*
X000710Y014629D01*
X000706Y014631D01*
X000702Y014632D01*
X000698Y014633D01*
X000693Y014635D01*
X000688Y014636D01*
X000681Y014636D01*
X000675Y014636D01*
X000668Y014636D01*
X000660Y014635D01*
X000656Y014634D01*
X000652Y014634D01*
X000649Y014633D01*
X000645Y014633D01*
X000642Y014632D01*
X000639Y014631D01*
X000636Y014630D01*
X000633Y014630D01*
X000631Y014629D01*
X000628Y014628D01*
X000626Y014627D01*
X000624Y014626D01*
X000622Y014625D01*
X000620Y014624D01*
X000616Y014621D01*
X000615Y014620D01*
X000612Y014618D01*
X000610Y014616D01*
X000609Y014615D01*
X000608Y014614D01*
X000607Y014612D01*
X000606Y014611D01*
X000605Y014609D01*
X000604Y014607D01*
X000604Y014605D01*
X000603Y014603D01*
X000603Y014601D01*
X000602Y014599D01*
X000602Y014598D01*
X000602Y014595D01*
X000602Y014593D01*
X000602Y014591D01*
X000601Y014590D01*
X000601Y014588D01*
X000601Y014586D01*
X000601Y014584D01*
X000601Y014582D01*
X000601Y014580D01*
X000601Y014579D01*
X000601Y014577D01*
X000601Y014576D01*
X000601Y014575D01*
X000600Y014574D01*
X000600Y014572D01*
X000599Y014572D01*
X000599Y014571D01*
X000597Y014570D01*
X000594Y014569D01*
X000590Y014568D01*
X000586Y014567D01*
X000580Y014565D01*
X000573Y014564D01*
X000567Y014563D01*
X000559Y014562D01*
X000551Y014560D01*
X000543Y014559D01*
X000535Y014558D01*
X000527Y014556D01*
X000518Y014555D01*
X000510Y014553D01*
X000502Y014551D01*
X000494Y014550D01*
X000486Y014548D01*
X000479Y014546D01*
X000473Y014544D01*
X000467Y014542D01*
X000462Y014539D01*
X000457Y014537D01*
X000454Y014534D01*
X000452Y014531D01*
X000450Y014528D01*
X000449Y014524D01*
X000448Y014520D01*
X000448Y014515D01*
X000447Y014509D01*
X000448Y014503D01*
X000448Y014497D01*
X000448Y014491D01*
X000449Y014484D01*
X000449Y014477D01*
X000450Y014470D01*
X000451Y014463D01*
X000452Y014457D01*
X000453Y014450D01*
X000454Y014444D01*
X000455Y014437D01*
X000456Y014432D01*
X000457Y014422D01*
X000457Y014417D01*
X000457Y014414D01*
X000458Y014411D01*
X000457Y014409D01*
X000457Y014408D01*
X000456Y014407D01*
X000455Y014406D01*
X000453Y014405D01*
X000452Y014405D01*
X000450Y014404D01*
X000448Y014403D01*
X000446Y014403D01*
X000443Y014402D01*
X000441Y014401D01*
X000438Y014400D01*
X000435Y014399D01*
X000433Y014398D01*
X000430Y014397D01*
X000427Y014396D01*
X000424Y014395D01*
X000421Y014394D01*
X000418Y014392D01*
X000416Y014391D01*
X000413Y014389D01*
X000411Y014388D01*
X000408Y014385D01*
X000406Y014383D01*
X000404Y014381D01*
X000402Y014379D01*
X000401Y014376D01*
X000400Y014370D01*
X000400Y014362D01*
X000400Y014354D01*
X000401Y014344D01*
X000402Y014331D01*
X000404Y014319D01*
X000406Y014306D01*
X000409Y014291D01*
X000411Y014277D01*
X000414Y014262D01*
X000418Y014247D01*
X000421Y014232D01*
X000424Y014217D01*
X000428Y014203D01*
X000432Y014189D01*
X000435Y014176D01*
X000439Y014164D01*
X000443Y014153D01*
X000446Y014143D01*
X000449Y014136D01*
X000453Y014129D01*
X000456Y014124D01*
X000458Y014123D01*
X000461Y014122D01*
X000463Y014121D01*
X000466Y014121D01*
X000469Y014120D01*
X000471Y014120D01*
X000474Y014120D01*
X000477Y014120D01*
X000479Y014120D01*
X000482Y014120D01*
X000484Y014120D01*
X000487Y014120D01*
X000490Y014121D01*
X000492Y014121D01*
X000495Y014121D01*
X000497Y014122D01*
X000499Y014122D01*
X000501Y014122D01*
X000503Y014122D01*
X000505Y014122D01*
X000507Y014122D01*
X000509Y014122D01*
X000511Y014122D01*
X000512Y014121D01*
X000513Y014120D01*
X000515Y014119D01*
X000516Y014118D01*
X000518Y014115D01*
X000519Y014113D01*
X000521Y014110D01*
X000523Y014106D01*
X000524Y014102D01*
X000526Y014098D01*
X000528Y014094D01*
X000530Y014089D01*
X000532Y014084D01*
X000537Y014074D01*
X000539Y014069D01*
X000541Y014065D01*
X000544Y014060D01*
X000546Y014055D01*
X000548Y014051D01*
X000551Y014046D01*
X000553Y014042D01*
X000555Y014039D01*
X000558Y014035D01*
X000560Y014032D01*
X000563Y014030D01*
X000565Y014028D01*
X000569Y014026D01*
X000574Y014025D01*
X000580Y014024D01*
X000586Y014023D01*
X000594Y014023D01*
X000601Y014022D01*
X000610Y014023D01*
X000619Y014023D01*
X000627Y014023D01*
X000636Y014024D01*
X000645Y014024D01*
X000655Y014025D01*
X000664Y014026D01*
X000672Y014027D01*
X000681Y014028D01*
X000689Y014029D01*
X000696Y014030D01*
X000703Y014031D01*
X000709Y014032D01*
X000714Y014032D01*
X000719Y014033D01*
X000723Y014034D01*
X000724Y014034D01*
X000726Y014034D01*
X000727Y014034D01*
X000730Y014032D01*
X000731Y014030D01*
X000732Y014028D01*
X000733Y014026D01*
X000735Y014024D01*
X000736Y014021D01*
X000737Y014019D01*
X000739Y014016D01*
X000741Y014013D01*
X000743Y014011D01*
X000745Y014008D01*
X000748Y014005D01*
X000751Y014003D01*
X000755Y014001D01*
X000759Y013999D01*
X000763Y013997D01*
X000768Y013995D01*
X000774Y013995D01*
X000780Y013994D01*
X000787Y013994D01*
X000795Y013994D01*
X000804Y013995D01*
X000811Y013996D01*
X000816Y013998D01*
X000822Y014001D01*
X000827Y014003D01*
X000831Y014006D01*
X000835Y014009D01*
X000838Y014013D01*
X000840Y014017D01*
X000842Y014020D01*
X000844Y014024D01*
X000845Y014028D01*
X000847Y014032D01*
X000847Y014036D01*
X000848Y014040D01*
X000849Y014044D01*
X000850Y014048D01*
X000851Y014054D01*
X000852Y014057D01*
X000853Y014059D01*
X000854Y014062D01*
X000856Y014064D01*
X000858Y014065D01*
X000860Y014066D01*
X000864Y014067D01*
X000869Y014067D01*
X000873Y014068D01*
X000879Y014069D01*
X000885Y014070D01*
X000892Y014071D01*
X000899Y014072D01*
X000906Y014073D01*
X000914Y014074D01*
X000922Y014075D01*
X000929Y014076D01*
X000937Y014078D01*
X000945Y014079D01*
X000953Y014082D01*
X000961Y014084D01*
X000968Y014086D01*
X000975Y014089D01*
X000982Y014092D01*
X000988Y014095D01*
X000993Y014099D01*
X000999Y014102D01*
X001003Y014107D01*
X001006Y014112D01*
X001008Y014114D01*
X001009Y014119D01*
X001010Y014124D01*
X001011Y014129D01*
X001011Y014135D01*
X001010Y014150D01*
X001010Y014158D01*
X001009Y014167D01*
X001008Y014176D01*
X001007Y014186D01*
X001005Y014197D01*
X001003Y014208D01*
X001002Y014219D01*
X001000Y014231D01*
X000998Y014243D01*
X000996Y014256D01*
X000994Y014269D01*
X000991Y014282D01*
X000989Y014296D01*
X000987Y014310D01*
X000985Y014325D01*
X000982Y014339D01*
X000980Y014354D01*
X000978Y014370D01*
X000976Y014386D01*
X000973Y014401D01*
X000971Y014416D01*
X000969Y014431D01*
X000966Y014446D01*
X000964Y014460D01*
X000961Y014474D01*
X000959Y014487D01*
X000956Y014500D01*
X000953Y014513D01*
X000951Y014524D01*
X000948Y014536D01*
X000946Y014547D01*
X000943Y014557D01*
X000941Y014566D01*
X000924Y014567D02*
X000620Y014567D01*
X000620Y014563D02*
X000620Y014613D01*
X000680Y014633D01*
X000730Y014583D01*
X000850Y014623D01*
X000900Y014623D01*
X000950Y014503D01*
X001000Y014123D01*
X000930Y014083D01*
X000850Y014073D01*
X000820Y014013D01*
X000780Y014003D01*
X000740Y014033D01*
X000730Y014043D01*
X000580Y014033D01*
X000530Y014113D01*
X000510Y014143D01*
X000470Y014133D01*
X000440Y014193D01*
X000430Y014263D01*
X000410Y014373D01*
X000470Y014413D01*
X000460Y014523D01*
X000500Y014543D01*
X000560Y014503D01*
X000570Y014383D01*
X000570Y014223D01*
X000630Y014113D01*
X000690Y014103D01*
X000780Y014113D01*
X000820Y014193D01*
X000770Y014303D01*
X000750Y014313D01*
X000640Y014313D01*
X000580Y014213D01*
X000550Y014313D01*
X000560Y014373D01*
X000640Y014353D01*
X000700Y014373D01*
X000730Y014423D01*
X000810Y014443D01*
X000820Y014403D01*
X000840Y014313D01*
X000910Y014333D01*
X000910Y014313D01*
X000840Y014293D01*
X000860Y014223D01*
X000920Y014233D01*
X000920Y014243D01*
X000890Y014393D01*
X000820Y014383D01*
X000810Y014393D01*
X000890Y014413D01*
X000870Y014503D01*
X000790Y014483D01*
X000800Y014453D01*
X000730Y014433D01*
X000710Y014493D01*
X000828Y014493D01*
X000831Y014478D02*
X000839Y014479D01*
X000847Y014481D01*
X000855Y014482D01*
X000863Y014483D01*
X000871Y014484D01*
X000872Y014476D01*
X000873Y014468D01*
X000875Y014460D01*
X000876Y014452D01*
X000878Y014444D01*
X000879Y014437D01*
X000881Y014429D01*
X000882Y014421D01*
X000859Y014417D01*
X000851Y014416D01*
X000843Y014415D01*
X000820Y014411D01*
X000819Y014419D01*
X000817Y014427D01*
X000815Y014435D01*
X000814Y014443D01*
X000812Y014451D01*
X000809Y014467D01*
X000807Y014475D01*
X000815Y014476D01*
X000831Y014478D01*
X000793Y014474D02*
X000716Y014474D01*
X000707Y014472D02*
X000709Y014468D01*
X000711Y014464D01*
X000712Y014459D01*
X000714Y014455D01*
X000715Y014450D01*
X000716Y014445D01*
X000716Y014440D01*
X000716Y014430D01*
X000716Y014425D01*
X000715Y014420D01*
X000714Y014416D01*
X000712Y014411D01*
X000711Y014407D01*
X000709Y014402D01*
X000707Y014398D01*
X000704Y014394D01*
X000701Y014390D01*
X000698Y014387D01*
X000695Y014383D01*
X000692Y014380D01*
X000688Y014377D01*
X000684Y014374D01*
X000680Y014372D01*
X000676Y014369D01*
X000672Y014367D01*
X000667Y014366D01*
X000663Y014364D01*
X000658Y014363D01*
X000653Y014362D01*
X000648Y014362D01*
X000638Y014362D01*
X000633Y014362D01*
X000629Y014363D01*
X000624Y014364D01*
X000619Y014366D01*
X000615Y014367D01*
X000610Y014369D01*
X000606Y014372D01*
X000602Y014374D01*
X000599Y014377D01*
X000595Y014380D01*
X000592Y014383D01*
X000588Y014387D01*
X000585Y014390D01*
X000583Y014394D01*
X000580Y014398D01*
X000578Y014402D01*
X000576Y014407D01*
X000574Y014411D01*
X000573Y014416D01*
X000572Y014420D01*
X000571Y014425D01*
X000570Y014430D01*
X000570Y014440D01*
X000571Y014445D01*
X000572Y014450D01*
X000573Y014455D01*
X000574Y014459D01*
X000576Y014464D01*
X000578Y014468D01*
X000580Y014472D01*
X000583Y014476D01*
X000585Y014480D01*
X000588Y014484D01*
X000592Y014487D01*
X000595Y014490D01*
X000599Y014493D01*
X000602Y014496D01*
X000606Y014499D01*
X000610Y014501D01*
X000619Y014505D01*
X000624Y014506D01*
X000629Y014507D01*
X000633Y014508D01*
X000638Y014509D01*
X000648Y014509D01*
X000653Y014508D01*
X000658Y014507D01*
X000663Y014506D01*
X000667Y014505D01*
X000676Y014501D01*
X000680Y014499D01*
X000684Y014496D01*
X000688Y014493D01*
X000692Y014490D01*
X000695Y014487D01*
X000698Y014484D01*
X000701Y014480D01*
X000704Y014476D01*
X000707Y014472D01*
X000710Y014493D02*
X000640Y014523D01*
X000550Y014473D01*
X000510Y014553D01*
X000620Y014563D01*
X000620Y014585D02*
X000728Y014585D01*
X000736Y014585D02*
X000916Y014585D01*
X000908Y014604D02*
X000792Y014604D01*
X000847Y014622D02*
X000900Y014622D01*
X000931Y014548D02*
X000512Y014548D01*
X000520Y014530D02*
X000473Y014530D01*
X000461Y014511D02*
X000531Y014511D01*
X000548Y014511D02*
X000619Y014511D01*
X000585Y014493D02*
X000561Y014493D01*
X000562Y014474D02*
X000552Y014474D01*
X000549Y014474D02*
X000464Y014474D01*
X000466Y014456D02*
X000564Y014456D01*
X000565Y014437D02*
X000468Y014437D01*
X000469Y014419D02*
X000567Y014419D01*
X000569Y014400D02*
X000451Y014400D01*
X000423Y014382D02*
X000570Y014382D01*
X000570Y014363D02*
X000600Y014363D01*
X000570Y014345D02*
X000833Y014345D01*
X000840Y014343D02*
X000838Y014351D01*
X000837Y014359D01*
X000835Y014367D01*
X000834Y014375D01*
X000832Y014383D01*
X000839Y014384D01*
X000854Y014386D01*
X000861Y014387D01*
X000868Y014388D01*
X000883Y014390D01*
X000890Y014391D01*
X000892Y014383D01*
X000894Y014368D01*
X000895Y014360D01*
X000897Y014352D01*
X000899Y014337D01*
X000900Y014329D01*
X000893Y014328D01*
X000886Y014327D01*
X000879Y014325D01*
X000872Y014324D01*
X000866Y014323D01*
X000859Y014322D01*
X000852Y014320D01*
X000845Y014319D01*
X000843Y014327D01*
X000841Y014335D01*
X000840Y014343D01*
X000837Y014326D02*
X000570Y014326D01*
X000552Y014326D02*
X000419Y014326D01*
X000422Y014308D02*
X000552Y014308D01*
X000570Y014308D02*
X000637Y014308D01*
X000644Y014294D02*
X000649Y014297D01*
X000655Y014300D01*
X000661Y014303D01*
X000667Y014306D01*
X000673Y014307D01*
X000680Y014309D01*
X000687Y014310D01*
X000693Y014311D01*
X000707Y014311D01*
X000714Y014310D01*
X000721Y014309D01*
X000727Y014307D01*
X000734Y014306D01*
X000740Y014303D01*
X000746Y014300D01*
X000752Y014297D01*
X000757Y014294D01*
X000762Y014290D01*
X000767Y014286D01*
X000772Y014281D01*
X000776Y014277D01*
X000781Y014271D01*
X000784Y014266D01*
X000788Y014261D01*
X000791Y014255D01*
X000794Y014249D01*
X000796Y014243D01*
X000798Y014236D01*
X000799Y014230D01*
X000801Y014223D01*
X000802Y014216D01*
X000802Y014202D01*
X000801Y014195D01*
X000799Y014189D01*
X000798Y014182D01*
X000796Y014176D01*
X000794Y014170D01*
X000791Y014164D01*
X000788Y014158D01*
X000784Y014152D01*
X000781Y014147D01*
X000776Y014142D01*
X000772Y014137D01*
X000767Y014133D01*
X000762Y014129D01*
X000757Y014125D01*
X000752Y014121D01*
X000746Y014118D01*
X000740Y014115D01*
X000734Y014113D01*
X000727Y014111D01*
X000714Y014108D01*
X000707Y014108D01*
X000693Y014108D01*
X000687Y014108D01*
X000680Y014110D01*
X000673Y014111D01*
X000667Y014113D01*
X000661Y014115D01*
X000655Y014118D01*
X000649Y014121D01*
X000644Y014125D01*
X000638Y014129D01*
X000633Y014133D01*
X000629Y014137D01*
X000624Y014142D01*
X000620Y014147D01*
X000617Y014152D01*
X000613Y014158D01*
X000610Y014164D01*
X000607Y014170D01*
X000605Y014176D01*
X000603Y014182D01*
X000601Y014189D01*
X000600Y014195D01*
X000599Y014202D01*
X000599Y014216D01*
X000600Y014223D01*
X000601Y014230D01*
X000603Y014236D01*
X000605Y014243D01*
X000607Y014249D01*
X000610Y014255D01*
X000613Y014261D01*
X000617Y014266D01*
X000620Y014271D01*
X000624Y014277D01*
X000629Y014281D01*
X000633Y014286D01*
X000638Y014290D01*
X000644Y014294D01*
X000626Y014289D02*
X000570Y014289D01*
X000557Y014289D02*
X000425Y014289D01*
X000429Y014271D02*
X000563Y014271D01*
X000570Y014271D02*
X000615Y014271D01*
X000603Y014252D02*
X000570Y014252D01*
X000568Y014252D02*
X000432Y014252D01*
X000434Y014234D02*
X000570Y014234D01*
X000574Y014234D02*
X000592Y014234D01*
X000581Y014215D02*
X000579Y014215D01*
X000574Y014215D02*
X000437Y014215D01*
X000439Y014197D02*
X000584Y014197D01*
X000594Y014178D02*
X000447Y014178D01*
X000457Y014160D02*
X000605Y014160D01*
X000615Y014141D02*
X000511Y014141D01*
X000502Y014141D02*
X000466Y014141D01*
X000524Y014123D02*
X000625Y014123D01*
X000683Y014104D02*
X000536Y014104D01*
X000547Y014086D02*
X000935Y014086D01*
X000967Y014104D02*
X000700Y014104D01*
X000698Y014164D02*
X000705Y014164D01*
X000708Y014164D01*
X000711Y014165D01*
X000714Y014165D01*
X000717Y014166D01*
X000719Y014167D01*
X000722Y014169D01*
X000725Y014170D01*
X000727Y014172D01*
X000729Y014173D01*
X000732Y014175D01*
X000736Y014179D01*
X000738Y014182D01*
X000739Y014184D01*
X000741Y014186D01*
X000742Y014189D01*
X000744Y014192D01*
X000745Y014195D01*
X000746Y014197D01*
X000746Y014200D01*
X000747Y014203D01*
X000747Y014207D01*
X000747Y014213D01*
X000747Y014216D01*
X000746Y014219D01*
X000746Y014222D01*
X000745Y014225D01*
X000744Y014228D01*
X000742Y014230D01*
X000741Y014233D01*
X000739Y014235D01*
X000738Y014238D01*
X000736Y014240D01*
X000734Y014242D01*
X000732Y014244D01*
X000729Y014246D01*
X000727Y014248D01*
X000725Y014249D01*
X000722Y014251D01*
X000719Y014252D01*
X000717Y014253D01*
X000714Y014254D01*
X000711Y014255D01*
X000708Y014255D01*
X000705Y014256D01*
X000698Y014256D01*
X000695Y014255D01*
X000692Y014255D01*
X000689Y014254D01*
X000686Y014253D01*
X000684Y014252D01*
X000681Y014251D01*
X000678Y014249D01*
X000676Y014248D01*
X000674Y014246D01*
X000671Y014244D01*
X000669Y014242D01*
X000667Y014240D01*
X000665Y014238D01*
X000664Y014235D01*
X000662Y014233D01*
X000661Y014230D01*
X000659Y014228D01*
X000658Y014225D01*
X000657Y014222D01*
X000657Y014219D01*
X000656Y014216D01*
X000656Y014213D01*
X000656Y014207D01*
X000656Y014203D01*
X000657Y014200D01*
X000657Y014197D01*
X000658Y014195D01*
X000659Y014192D01*
X000661Y014189D01*
X000662Y014186D01*
X000664Y014184D01*
X000665Y014182D01*
X000667Y014179D01*
X000669Y014177D01*
X000671Y014175D01*
X000674Y014173D01*
X000676Y014172D01*
X000678Y014170D01*
X000681Y014169D01*
X000684Y014167D01*
X000686Y014166D01*
X000689Y014165D01*
X000692Y014165D01*
X000695Y014164D01*
X000698Y014164D01*
X000785Y014123D02*
X000999Y014123D01*
X000998Y014141D02*
X000794Y014141D01*
X000803Y014160D02*
X000995Y014160D01*
X000993Y014178D02*
X000813Y014178D01*
X000818Y014197D02*
X000990Y014197D01*
X000988Y014215D02*
X000810Y014215D01*
X000802Y014234D02*
X000857Y014234D01*
X000860Y014239D02*
X000859Y014246D01*
X000857Y014254D01*
X000854Y014270D01*
X000853Y014278D01*
X000852Y014285D01*
X000850Y014293D01*
X000857Y014294D01*
X000864Y014296D01*
X000871Y014297D01*
X000879Y014298D01*
X000886Y014299D01*
X000893Y014301D01*
X000900Y014302D01*
X000907Y014303D01*
X000908Y014295D01*
X000910Y014287D01*
X000911Y014280D01*
X000912Y014272D01*
X000914Y014264D01*
X000916Y014248D01*
X000918Y014241D01*
X000911Y014239D01*
X000904Y014238D01*
X000897Y014237D01*
X000890Y014236D01*
X000883Y014234D01*
X000876Y014233D01*
X000869Y014232D01*
X000862Y014231D01*
X000860Y014239D01*
X000852Y014252D02*
X000793Y014252D01*
X000785Y014271D02*
X000846Y014271D01*
X000841Y014289D02*
X000776Y014289D01*
X000761Y014308D02*
X000891Y014308D01*
X000907Y014308D02*
X000976Y014308D01*
X000973Y014326D02*
X000910Y014326D01*
X000903Y014326D02*
X000886Y014326D01*
X000900Y014345D02*
X000971Y014345D01*
X000968Y014363D02*
X000896Y014363D01*
X000892Y014382D02*
X000966Y014382D01*
X000964Y014400D02*
X000838Y014400D01*
X000821Y014400D02*
X000716Y014400D01*
X000705Y014382D02*
X000825Y014382D01*
X000829Y014363D02*
X000670Y014363D01*
X000727Y014419D02*
X000816Y014419D01*
X000811Y014437D02*
X000786Y014437D01*
X000799Y014456D02*
X000722Y014456D01*
X000729Y014437D02*
X000744Y014437D01*
X000668Y014511D02*
X000947Y014511D01*
X000951Y014493D02*
X000872Y014493D01*
X000876Y014474D02*
X000954Y014474D01*
X000956Y014456D02*
X000881Y014456D01*
X000885Y014437D02*
X000959Y014437D01*
X000961Y014419D02*
X000889Y014419D01*
X000939Y014530D02*
X000522Y014530D01*
X000540Y014493D02*
X000463Y014493D01*
X000412Y014363D02*
X000558Y014363D01*
X000555Y014345D02*
X000415Y014345D01*
X000559Y014067D02*
X000847Y014067D01*
X000838Y014049D02*
X000570Y014049D01*
X000744Y014030D02*
X000829Y014030D01*
X000814Y014012D02*
X000769Y014012D01*
X000920Y014234D02*
X000985Y014234D01*
X000983Y014252D02*
X000918Y014252D01*
X000914Y014271D02*
X000981Y014271D01*
X000978Y014289D02*
X000911Y014289D01*
X001021Y014289D02*
X001230Y014289D01*
X001232Y014271D02*
X001024Y014271D01*
X001028Y014252D02*
X001234Y014252D01*
X001236Y014234D02*
X001032Y014234D01*
X001036Y014215D02*
X001239Y014215D01*
X001217Y014197D02*
X001039Y014197D01*
X001107Y014178D02*
X001149Y014178D01*
X001146Y014128D02*
X001148Y014128D01*
X001150Y014127D01*
X001152Y014127D01*
X001155Y014126D01*
X001157Y014126D01*
X001159Y014125D01*
X001160Y014125D01*
X001164Y014123D01*
X001166Y014123D01*
X001167Y014122D01*
X001170Y014120D01*
X001174Y014116D01*
X001178Y014111D01*
X001182Y014105D01*
X001187Y014098D01*
X001192Y014089D01*
X001197Y014080D01*
X001202Y014070D01*
X001208Y014060D01*
X001214Y014049D01*
X001219Y014038D01*
X001225Y014027D01*
X001230Y014015D01*
X001235Y014004D01*
X001240Y013993D01*
X001245Y013982D01*
X001249Y013971D01*
X001252Y013961D01*
X001256Y013951D01*
X001258Y013943D01*
X001260Y013936D01*
X001262Y013928D01*
X001262Y013923D01*
X001262Y013919D01*
X001261Y013917D01*
X001261Y013915D01*
X001260Y013913D01*
X001259Y013912D01*
X001258Y013910D01*
X001257Y013908D01*
X001256Y013905D01*
X001254Y013903D01*
X001252Y013901D01*
X001251Y013899D01*
X001249Y013897D01*
X001246Y013895D01*
X001244Y013892D01*
X001242Y013890D01*
X001236Y013885D01*
X001233Y013882D01*
X001230Y013880D01*
X001226Y013877D01*
X001223Y013874D01*
X001219Y013872D01*
X001215Y013869D01*
X001211Y013866D01*
X001206Y013863D01*
X001202Y013860D01*
X001199Y013858D01*
X001195Y013856D01*
X001192Y013853D01*
X001188Y013851D01*
X001185Y013849D01*
X001181Y013847D01*
X001178Y013845D01*
X001175Y013844D01*
X001171Y013842D01*
X001168Y013840D01*
X001162Y013838D01*
X001159Y013836D01*
X001153Y013835D01*
X001150Y013834D01*
X001148Y013834D01*
X001145Y013833D01*
X001142Y013833D01*
X001140Y013833D01*
X001137Y013834D01*
X001135Y013834D01*
X001133Y013835D01*
X001131Y013836D01*
X001129Y013837D01*
X001127Y013839D01*
X001125Y013841D01*
X001124Y013844D01*
X001122Y013846D01*
X001121Y013849D01*
X001120Y013852D01*
X001118Y013855D01*
X001117Y013859D01*
X001116Y013862D01*
X001115Y013866D01*
X001113Y013869D01*
X001112Y013873D01*
X001111Y013876D01*
X001110Y013879D01*
X001109Y013883D01*
X001108Y013886D01*
X001107Y013889D01*
X001106Y013891D01*
X001105Y013893D01*
X001104Y013895D01*
X001102Y013897D01*
X001101Y013898D01*
X001101Y013899D01*
X001100Y013899D01*
X001099Y013899D01*
X001098Y013899D01*
X001096Y013899D01*
X001095Y013899D01*
X001093Y013899D01*
X001091Y013899D01*
X001090Y013899D01*
X001088Y013899D01*
X001086Y013898D01*
X001084Y013898D01*
X001082Y013898D01*
X001080Y013898D01*
X001078Y013897D01*
X001076Y013897D01*
X001074Y013897D01*
X001072Y013897D01*
X001070Y013897D01*
X001068Y013897D01*
X001066Y013897D01*
X001064Y013897D01*
X001062Y013898D01*
X001060Y013898D01*
X001059Y013899D01*
X001058Y013900D01*
X001056Y013901D01*
X001055Y013901D01*
X001054Y013903D01*
X001053Y013904D01*
X001052Y013905D01*
X001051Y013907D01*
X001050Y013908D01*
X001050Y013909D01*
X001049Y013911D01*
X001048Y013912D01*
X001048Y013914D01*
X001047Y013916D01*
X001047Y013917D01*
X001047Y013918D01*
X001046Y013920D01*
X001046Y013921D01*
X001046Y013923D01*
X001046Y013924D01*
X001045Y013925D01*
X001045Y013926D01*
X001045Y013927D01*
X001045Y013928D01*
X001045Y013929D01*
X001045Y013930D01*
X001044Y013931D01*
X001044Y013932D01*
X001044Y013934D01*
X001044Y013935D01*
X001044Y013936D01*
X001044Y013938D01*
X001044Y013939D01*
X001044Y013940D01*
X001044Y013942D01*
X001043Y013943D01*
X001044Y013945D01*
X001044Y013946D01*
X001044Y013947D01*
X001044Y013948D01*
X001044Y013950D01*
X001045Y013951D01*
X001045Y013952D01*
X001045Y013953D01*
X001046Y013954D01*
X001047Y013955D01*
X001048Y013956D01*
X001049Y013957D01*
X001050Y013957D01*
X001051Y013958D01*
X001053Y013958D01*
X001056Y013959D01*
X001058Y013959D01*
X001060Y013960D01*
X001062Y013960D01*
X001064Y013961D01*
X001066Y013961D01*
X001067Y013962D01*
X001069Y013962D01*
X001071Y013963D01*
X001073Y013963D01*
X001075Y013964D01*
X001077Y013964D01*
X001078Y013965D01*
X001080Y013965D01*
X001081Y013966D01*
X001082Y013967D01*
X001083Y013967D01*
X001084Y013968D01*
X001085Y013969D01*
X001085Y013972D01*
X001084Y013976D01*
X001084Y013980D01*
X001083Y013986D01*
X001080Y013999D01*
X001078Y014007D01*
X001077Y014015D01*
X001075Y014023D01*
X001073Y014032D01*
X001071Y014041D01*
X001069Y014049D01*
X001067Y014058D01*
X001065Y014067D01*
X001063Y014075D01*
X001062Y014083D01*
X001060Y014090D01*
X001059Y014097D01*
X001058Y014103D01*
X001058Y014108D01*
X001057Y014113D01*
X001057Y014116D01*
X001058Y014117D01*
X001058Y014118D01*
X001059Y014119D01*
X001060Y014120D01*
X001061Y014121D01*
X001062Y014122D01*
X001064Y014123D01*
X001065Y014123D01*
X001067Y014124D01*
X001069Y014125D01*
X001071Y014125D01*
X001073Y014126D01*
X001076Y014126D01*
X001078Y014127D01*
X001081Y014127D01*
X001083Y014127D01*
X001086Y014127D01*
X001089Y014128D01*
X001094Y014128D01*
X001097Y014128D01*
X001100Y014128D01*
X001103Y014129D01*
X001107Y014129D01*
X001110Y014129D01*
X001113Y014129D01*
X001116Y014129D01*
X001119Y014129D01*
X001122Y014129D01*
X001125Y014129D01*
X001127Y014129D01*
X001130Y014129D01*
X001133Y014129D01*
X001136Y014129D01*
X001138Y014128D01*
X001141Y014128D01*
X001143Y014128D01*
X001146Y014128D01*
X001160Y014113D02*
X001110Y014123D01*
X001070Y014113D01*
X001090Y013973D01*
X001050Y013943D01*
X001060Y013903D01*
X001100Y013903D01*
X001130Y013843D01*
X001160Y013853D01*
X001230Y013893D01*
X001250Y013923D01*
X001160Y014113D01*
X001164Y014104D02*
X001071Y014104D01*
X001074Y014086D02*
X001173Y014086D01*
X001182Y014067D02*
X001077Y014067D01*
X001079Y014049D02*
X001191Y014049D01*
X001199Y014030D02*
X001082Y014030D01*
X001084Y014012D02*
X001208Y014012D01*
X001217Y013993D02*
X001087Y013993D01*
X001090Y013975D02*
X001226Y013975D01*
X001234Y013956D02*
X001067Y013956D01*
X001047Y013955D02*
X001047Y013955D01*
X001051Y013938D02*
X001243Y013938D01*
X001247Y013919D02*
X001056Y013919D01*
X001045Y013928D02*
X001045Y013928D01*
X001101Y013901D02*
X001235Y013901D01*
X001211Y013882D02*
X001110Y013882D01*
X001120Y013864D02*
X001179Y013864D01*
X001136Y013845D02*
X001129Y013845D01*
X001108Y014123D02*
X001112Y014123D01*
X001270Y014266D02*
X001270Y014266D01*
X001269Y014267D01*
X001268Y014268D01*
X001268Y014269D01*
X001267Y014270D01*
X001267Y014272D01*
X001266Y014273D01*
X001265Y014274D01*
X001265Y014276D01*
X001264Y014278D01*
X001264Y014279D01*
X001263Y014281D01*
X001263Y014283D01*
X001262Y014285D01*
X001262Y014288D01*
X001261Y014290D01*
X001261Y014292D01*
X001260Y014295D01*
X001260Y014297D01*
X001260Y014300D01*
X001259Y014303D01*
X001259Y014306D01*
X001259Y014309D01*
X001259Y014312D01*
X001258Y014315D01*
X001258Y014319D01*
X001258Y014322D01*
X001258Y014325D01*
X001258Y014328D01*
X001258Y014330D01*
X001258Y014333D01*
X001258Y014336D01*
X001258Y014338D01*
X001259Y014341D01*
X001259Y014343D01*
X001259Y014345D01*
X001259Y014347D01*
X001260Y014349D01*
X001260Y014351D01*
X001261Y014352D01*
X001261Y014354D01*
X001262Y014355D01*
X001262Y014356D01*
X001263Y014357D01*
X001263Y014358D01*
X001264Y014358D01*
X001265Y014359D01*
X001268Y014360D01*
X001272Y014361D01*
X001276Y014362D01*
X001280Y014362D01*
X001286Y014363D01*
X001291Y014364D01*
X001297Y014365D01*
X001303Y014365D01*
X001309Y014366D01*
X001316Y014367D01*
X001322Y014367D01*
X001329Y014367D01*
X001335Y014368D01*
X001342Y014368D01*
X001348Y014368D01*
X001353Y014368D01*
X001359Y014368D01*
X001364Y014368D01*
X001368Y014367D01*
X001372Y014366D01*
X001375Y014366D01*
X001378Y014365D01*
X001379Y014364D01*
X001379Y014363D01*
X001380Y014362D01*
X001380Y014361D01*
X001381Y014359D01*
X001381Y014357D01*
X001382Y014354D01*
X001383Y014352D01*
X001383Y014349D01*
X001384Y014345D01*
X001385Y014341D01*
X001386Y014337D01*
X001387Y014333D01*
X001388Y014329D01*
X001389Y014324D01*
X001390Y014319D01*
X001391Y014314D01*
X001392Y014309D01*
X001392Y014304D01*
X001393Y014298D01*
X001394Y014293D01*
X001396Y014281D01*
X001396Y014276D01*
X001397Y014270D01*
X001398Y014265D01*
X001398Y014260D01*
X001398Y014254D01*
X001399Y014249D01*
X001399Y014244D01*
X001400Y014234D01*
X001400Y014229D01*
X001400Y014225D01*
X001400Y014220D01*
X001400Y014216D01*
X001400Y014212D01*
X001400Y014207D01*
X001400Y014204D01*
X001400Y014200D01*
X001400Y014197D01*
X001399Y014193D01*
X001399Y014191D01*
X001399Y014188D01*
X001399Y014185D01*
X001398Y014184D01*
X001398Y014182D01*
X001398Y014180D01*
X001398Y014180D01*
X001397Y014178D01*
X001396Y014176D01*
X001394Y014175D01*
X001392Y014173D01*
X001389Y014172D01*
X001387Y014170D01*
X001384Y014169D01*
X001381Y014168D01*
X001378Y014167D01*
X001375Y014166D01*
X001371Y014166D01*
X001367Y014165D01*
X001364Y014165D01*
X001360Y014164D01*
X001357Y014164D01*
X001353Y014164D01*
X001350Y014164D01*
X001346Y014164D01*
X001343Y014164D01*
X001340Y014165D01*
X001337Y014165D01*
X001334Y014166D01*
X001332Y014167D01*
X001330Y014168D01*
X001328Y014169D01*
X001327Y014170D01*
X001326Y014173D01*
X001325Y014176D01*
X001323Y014179D01*
X001321Y014186D01*
X001320Y014191D01*
X001320Y014195D01*
X001319Y014200D01*
X001318Y014205D01*
X001317Y014214D01*
X001316Y014219D01*
X001315Y014224D01*
X001315Y014228D01*
X001314Y014232D01*
X001313Y014240D01*
X001312Y014244D01*
X001311Y014249D01*
X001310Y014251D01*
X001310Y014252D01*
X001309Y014253D01*
X001308Y014254D01*
X001307Y014254D01*
X001306Y014255D01*
X001304Y014256D01*
X001301Y014257D01*
X001299Y014257D01*
X001297Y014258D01*
X001295Y014258D01*
X001294Y014258D01*
X001292Y014259D01*
X001290Y014259D01*
X001288Y014259D01*
X001286Y014260D01*
X001284Y014260D01*
X001282Y014260D01*
X001280Y014261D01*
X001278Y014261D01*
X001277Y014262D01*
X001275Y014262D01*
X001274Y014263D01*
X001272Y014264D01*
X001271Y014264D01*
X001271Y014265D01*
X001270Y014266D01*
X001280Y014273D02*
X001270Y014353D01*
X001320Y014363D01*
X001370Y014363D01*
X001390Y014183D01*
X001340Y014173D01*
X001320Y014253D01*
X001280Y014273D01*
X001285Y014271D02*
X001380Y014271D01*
X001378Y014289D02*
X001278Y014289D01*
X001276Y014308D02*
X001376Y014308D01*
X001374Y014326D02*
X001273Y014326D01*
X001271Y014345D02*
X001372Y014345D01*
X001382Y014252D02*
X001320Y014252D01*
X001325Y014234D02*
X001384Y014234D01*
X001386Y014215D02*
X001329Y014215D01*
X001334Y014197D02*
X001388Y014197D01*
X001365Y014178D02*
X001339Y014178D01*
X000709Y014604D02*
X000620Y014604D01*
X000647Y014622D02*
X000691Y014622D01*
M02*
