G75*
%MOIN*%
%OFA0B0*%
%FSLAX24Y24*%
%IPPOS*%
%LPD*%
%AMOC8*
5,1,8,0,0,1.08239X$1,22.5*
%
%ADD10C,0.0100*%
%ADD11C,0.0080*%
%ADD12C,0.0010*%
D10*
X003045Y019519D02*
X003795Y019519D01*
D11*
X002945Y019819D02*
X002945Y021819D01*
X022945Y021819D01*
X022945Y019819D01*
X002945Y019819D01*
D12*
X001402Y006924D02*
X000472Y006924D01*
X000472Y007700D01*
X001400Y007700D01*
X001400Y007426D01*
X001130Y007426D01*
X001104Y007476D01*
X000822Y007476D01*
X000782Y007428D01*
X000764Y007428D01*
X000764Y007228D01*
X000780Y007228D01*
X000780Y007402D01*
X000780Y007424D01*
X000758Y007424D01*
X000758Y007402D01*
X000666Y007402D01*
X000640Y007374D01*
X000640Y007248D01*
X000662Y007226D01*
X000780Y007226D01*
X000780Y007196D01*
X000820Y007148D01*
X001104Y007148D01*
X001128Y007198D01*
X001402Y007198D01*
X001402Y006924D01*
X001402Y006925D02*
X000472Y006925D01*
X000472Y006933D02*
X001402Y006933D01*
X001402Y006942D02*
X000472Y006942D01*
X000472Y006950D02*
X001402Y006950D01*
X001402Y006959D02*
X000472Y006959D01*
X000472Y006967D02*
X001402Y006967D01*
X001402Y006976D02*
X000472Y006976D01*
X000472Y006984D02*
X001402Y006984D01*
X001402Y006993D02*
X000472Y006993D01*
X000472Y007001D02*
X001402Y007001D01*
X001402Y007010D02*
X000472Y007010D01*
X000472Y007018D02*
X001402Y007018D01*
X001402Y007027D02*
X000472Y007027D01*
X000472Y007035D02*
X001402Y007035D01*
X001402Y007044D02*
X000472Y007044D01*
X000472Y007052D02*
X001402Y007052D01*
X001402Y007061D02*
X000472Y007061D01*
X000472Y007069D02*
X001402Y007069D01*
X001402Y007078D02*
X000472Y007078D01*
X000472Y007086D02*
X001402Y007086D01*
X001402Y007095D02*
X000472Y007095D01*
X000472Y007103D02*
X001402Y007103D01*
X001402Y007112D02*
X000472Y007112D01*
X000472Y007120D02*
X001402Y007120D01*
X001402Y007129D02*
X000472Y007129D01*
X000472Y007137D02*
X001402Y007137D01*
X001402Y007146D02*
X000472Y007146D01*
X000472Y007154D02*
X000815Y007154D01*
X000808Y007163D02*
X000472Y007163D01*
X000472Y007171D02*
X000801Y007171D01*
X000794Y007180D02*
X000472Y007180D01*
X000472Y007188D02*
X000786Y007188D01*
X000780Y007197D02*
X000472Y007197D01*
X000472Y007205D02*
X000780Y007205D01*
X000780Y007214D02*
X000472Y007214D01*
X000472Y007222D02*
X000780Y007222D01*
X000780Y007231D02*
X000764Y007231D01*
X000764Y007239D02*
X000780Y007239D01*
X000780Y007248D02*
X000764Y007248D01*
X000764Y007256D02*
X000780Y007256D01*
X000780Y007265D02*
X000764Y007265D01*
X000764Y007273D02*
X000780Y007273D01*
X000780Y007282D02*
X000764Y007282D01*
X000764Y007290D02*
X000780Y007290D01*
X000780Y007299D02*
X000764Y007299D01*
X000764Y007307D02*
X000780Y007307D01*
X000780Y007316D02*
X000764Y007316D01*
X000764Y007324D02*
X000780Y007324D01*
X000780Y007333D02*
X000764Y007333D01*
X000764Y007341D02*
X000780Y007341D01*
X000780Y007350D02*
X000764Y007350D01*
X000764Y007358D02*
X000780Y007358D01*
X000780Y007367D02*
X000764Y007367D01*
X000764Y007375D02*
X000780Y007375D01*
X000780Y007384D02*
X000764Y007384D01*
X000764Y007392D02*
X000780Y007392D01*
X000780Y007401D02*
X000764Y007401D01*
X000764Y007409D02*
X000780Y007409D01*
X000780Y007418D02*
X000764Y007418D01*
X000758Y007418D02*
X000472Y007418D01*
X000472Y007426D02*
X000764Y007426D01*
X000758Y007409D02*
X000472Y007409D01*
X000472Y007401D02*
X000665Y007401D01*
X000657Y007392D02*
X000472Y007392D01*
X000472Y007384D02*
X000649Y007384D01*
X000641Y007375D02*
X000472Y007375D01*
X000472Y007367D02*
X000640Y007367D01*
X000640Y007358D02*
X000472Y007358D01*
X000472Y007350D02*
X000640Y007350D01*
X000640Y007341D02*
X000472Y007341D01*
X000472Y007333D02*
X000640Y007333D01*
X000640Y007324D02*
X000472Y007324D01*
X000472Y007316D02*
X000640Y007316D01*
X000640Y007307D02*
X000472Y007307D01*
X000472Y007299D02*
X000640Y007299D01*
X000640Y007290D02*
X000472Y007290D01*
X000472Y007282D02*
X000640Y007282D01*
X000640Y007273D02*
X000472Y007273D01*
X000472Y007265D02*
X000640Y007265D01*
X000640Y007256D02*
X000472Y007256D01*
X000472Y007248D02*
X000640Y007248D01*
X000649Y007239D02*
X000472Y007239D01*
X000472Y007231D02*
X000657Y007231D01*
X000788Y007435D02*
X000472Y007435D01*
X000472Y007443D02*
X000795Y007443D01*
X000802Y007452D02*
X000472Y007452D01*
X000472Y007460D02*
X000809Y007460D01*
X000816Y007469D02*
X000472Y007469D01*
X000472Y007477D02*
X001400Y007477D01*
X001400Y007469D02*
X001108Y007469D01*
X001112Y007460D02*
X001400Y007460D01*
X001400Y007452D02*
X001117Y007452D01*
X001121Y007443D02*
X001400Y007443D01*
X001400Y007435D02*
X001125Y007435D01*
X001130Y007426D02*
X001400Y007426D01*
X001400Y007486D02*
X000472Y007486D01*
X000472Y007494D02*
X001400Y007494D01*
X001400Y007503D02*
X000472Y007503D01*
X000472Y007511D02*
X001400Y007511D01*
X001400Y007520D02*
X000472Y007520D01*
X000472Y007528D02*
X001400Y007528D01*
X001400Y007537D02*
X000472Y007537D01*
X000472Y007545D02*
X001400Y007545D01*
X001400Y007554D02*
X000472Y007554D01*
X000472Y007562D02*
X001400Y007562D01*
X001400Y007571D02*
X000472Y007571D01*
X000472Y007579D02*
X001400Y007579D01*
X001400Y007588D02*
X000472Y007588D01*
X000472Y007596D02*
X001400Y007596D01*
X001400Y007605D02*
X000472Y007605D01*
X000472Y007613D02*
X001400Y007613D01*
X001400Y007622D02*
X000472Y007622D01*
X000472Y007630D02*
X001400Y007630D01*
X001400Y007639D02*
X000472Y007639D01*
X000472Y007647D02*
X001400Y007647D01*
X001400Y007656D02*
X000472Y007656D01*
X000472Y007664D02*
X001400Y007664D01*
X001400Y007673D02*
X000472Y007673D01*
X000472Y007681D02*
X001400Y007681D01*
X001400Y007690D02*
X000472Y007690D01*
X000472Y007698D02*
X001400Y007698D01*
X001402Y007197D02*
X001127Y007197D01*
X001123Y007188D02*
X001402Y007188D01*
X001402Y007180D02*
X001119Y007180D01*
X001115Y007171D02*
X001402Y007171D01*
X001402Y007163D02*
X001111Y007163D01*
X001107Y007154D02*
X001402Y007154D01*
M02*
