%
M48
M72
T01C0.0150
T02C0.0200
T03C0.0400
T04C0.1102
%
T01
X24550Y13083
X25250Y22833
T02
X24450Y22183
X24450Y21483
X24800Y18783
X24050Y18783
X14650Y22183
X12450Y21333
T03
X4900Y8333
X4900Y9333
X5900Y9333
X5900Y8333
X6900Y8333
X6900Y9333
X7900Y9333
X7900Y8333
X8900Y8333
X8900Y9333
X9900Y9333
X9900Y8333
X10900Y8333
X11900Y8333
X11900Y9333
X10900Y9333
X10900Y10833
X11900Y10833
X12900Y10833
X13900Y10833
X14900Y10833
X15900Y10833
X15900Y11833
X15900Y12833
X15900Y13833
X14900Y13833
X14900Y12833
X14900Y11833
X13900Y11833
X13900Y12833
X13900Y13833
X12900Y13833
X12900Y12833
X12900Y11833
X11900Y11833
X10900Y11833
X10900Y12833
X11900Y12833
X11900Y13833
X10900Y13833
X9900Y13833
X9900Y12833
X9900Y11833
X9900Y10833
X8900Y10833
X7900Y10833
X6900Y10833
X5900Y10833
X4900Y10833
X3900Y10833
X2900Y10833
X2900Y11833
X2900Y12833
X2900Y13833
X3900Y13833
X3900Y12833
X3900Y11833
X4900Y11833
X4900Y12833
X4900Y13833
X5900Y13833
X5900Y12833
X5900Y11833
X6900Y11833
X6900Y12833
X6900Y13833
X7900Y13833
X7900Y12833
X7900Y11833
X8900Y11833
X8900Y12833
X8900Y13833
X8900Y14833
X7900Y14833
X6900Y14833
X5900Y14833
X4900Y14833
X3900Y14833
X2900Y14833
X2900Y16833
X2900Y17833
X2900Y18833
X3900Y18833
X3900Y17833
X3900Y16833
X4900Y16833
X4900Y17833
X4900Y18833
X5900Y18833
X5900Y17833
X5900Y16833
X6900Y16833
X6900Y17833
X6900Y18833
X7900Y18833
X7900Y17833
X7900Y16833
X8900Y16833
X8900Y17833
X8900Y18833
X9900Y18833
X9900Y17833
X9900Y16833
X10900Y16833
X11900Y16833
X11900Y17833
X10900Y17833
X10900Y18833
X11900Y18833
X12900Y18833
X12900Y17833
X12900Y16833
X13900Y16833
X13900Y17833
X13900Y18833
X14900Y18833
X14900Y17833
X14900Y16833
X15900Y16833
X15900Y17833
X15900Y18833
X16900Y18833
X16900Y17833
X16900Y16833
X17900Y16833
X18900Y16833
X18900Y17833
X17900Y17833
X17900Y18833
X18900Y18833
X19900Y18833
X19900Y17833
X19900Y16833
X20900Y16833
X20900Y17833
X20900Y18833
X20900Y19833
X20900Y20833
X19900Y20833
X19900Y19833
X18900Y19833
X17900Y19833
X17900Y20833
X18900Y20833
X16900Y20833
X16900Y19833
X15900Y19833
X15900Y20833
X14900Y20833
X14900Y19833
X13900Y19833
X13900Y20833
X12900Y20833
X12900Y19833
X11900Y19833
X10900Y19833
X10900Y20833
X11900Y20833
X9900Y20833
X9900Y19833
X8900Y19833
X8900Y20833
X7900Y20833
X7900Y19833
X6900Y19833
X6900Y20833
X5900Y20833
X5900Y19833
X4900Y19833
X3900Y19833
X3900Y20833
X4900Y20833
X2900Y20833
X2900Y19833
X2900Y22833
X2900Y23833
X3900Y23833
X3900Y22833
X4900Y22833
X4900Y23833
X5900Y23833
X5900Y22833
X6900Y22833
X6900Y23833
X7900Y23833
X7900Y22833
X8900Y22833
X8900Y23833
X9900Y23833
X9900Y22833
X10900Y22833
X11900Y22833
X11900Y23833
X10900Y23833
X10900Y24833
X11900Y24833
X12900Y24833
X12900Y23833
X12900Y22833
X13900Y22833
X13900Y23833
X14900Y23833
X14900Y22833
X15900Y22833
X15900Y23833
X16900Y23833
X16900Y22833
X17900Y22833
X18900Y22833
X18900Y23833
X17900Y23833
X17900Y24833
X18900Y24833
X19900Y24833
X19900Y23833
X19900Y22833
X20900Y22833
X20900Y23833
X20900Y24833
X21900Y24833
X22900Y24833
X23900Y24833
X24900Y24833
X22445Y27503
X22445Y28503
X21445Y28503
X21445Y27503
X20445Y27503
X20445Y28503
X19445Y28503
X19445Y27503
X18445Y27503
X18445Y28503
X17445Y28503
X17445Y27503
X16445Y27503
X16445Y28503
X15445Y28503
X15445Y27503
X14445Y27503
X14445Y28503
X13445Y28503
X12445Y28503
X12445Y27503
X13445Y27503
X11445Y27503
X11445Y28503
X10445Y28503
X10445Y27503
X9445Y27503
X9445Y28503
X8445Y28503
X8445Y27503
X7445Y27503
X7445Y28503
X6445Y28503
X5445Y28503
X5445Y27503
X6445Y27503
X4445Y27503
X4445Y28503
X3445Y28503
X3445Y27503
X3900Y24833
X4900Y24833
X5900Y24833
X6900Y24833
X7900Y24833
X8900Y24833
X9900Y24833
X13900Y24833
X14900Y24833
X15900Y24833
X16900Y24833
X15900Y14833
X14900Y14833
X13900Y14833
X12900Y14833
X11900Y14833
X10900Y14833
X9900Y14833
X12900Y9333
X12900Y8333
X13900Y8333
X13900Y9333
X14900Y9333
X14900Y8333
X15900Y8333
X15900Y9333
X18900Y9333
X18900Y8333
X19900Y8333
X19900Y9333
X20900Y9333
X20900Y8333
X20900Y10833
X19900Y10833
X18900Y10833
X18900Y11833
X18900Y12833
X18900Y13833
X19900Y13833
X19900Y12833
X19900Y11833
X20900Y11833
X20900Y12833
X20900Y13833
X20900Y14833
X19900Y14833
X18900Y14833
X2900Y24833
X1900Y24833
X900Y24833
T04
X1528Y28003
X1528Y8711
X24363Y8711
X24363Y28003
M30
