G75*
%MOIN*%
%OFA0B0*%
%FSLAX24Y24*%
%IPPOS*%
%LPD*%
%AMOC8*
5,1,8,0,0,1.08239X$1,22.5*
%
%ADD10C,0.0100*%
%ADD11C,0.0080*%
%ADD12C,0.0020*%
D10*
X003045Y026703D02*
X003795Y026703D01*
D11*
X002945Y027003D02*
X002945Y029003D01*
X022945Y029003D01*
X022945Y027003D01*
X002945Y027003D01*
D12*
X001112Y013834D02*
X001109Y013834D01*
X001107Y013835D01*
X001104Y013835D01*
X001102Y013837D01*
X001100Y013839D01*
X001098Y013841D01*
X001096Y013844D01*
X001094Y013847D01*
X001092Y013850D01*
X001090Y013854D01*
X001088Y013857D01*
X001086Y013861D01*
X001084Y013865D01*
X001083Y013869D01*
X001081Y013873D01*
X001079Y013877D01*
X001078Y013881D01*
X001076Y013885D01*
X001074Y013888D01*
X001071Y013895D01*
X001070Y013898D01*
X001068Y013900D01*
X001067Y013902D01*
X001065Y013904D01*
X001064Y013904D01*
X001062Y013905D01*
X001060Y013906D01*
X001059Y013906D01*
X001057Y013907D01*
X001056Y013907D01*
X001053Y013907D01*
X001051Y013907D01*
X001049Y013907D01*
X001048Y013906D01*
X001046Y013906D01*
X001044Y013906D01*
X001043Y013906D01*
X001041Y013906D01*
X001040Y013905D01*
X001038Y013905D01*
X001036Y013905D01*
X001033Y013905D01*
X001031Y013906D01*
X001030Y013906D01*
X001028Y013907D01*
X001027Y013907D01*
X001025Y013908D01*
X001023Y013909D01*
X001021Y013911D01*
X001020Y013913D01*
X001018Y013915D01*
X001017Y013918D01*
X001015Y013920D01*
X001014Y013923D01*
X001012Y013927D01*
X001011Y013930D01*
X001010Y013933D01*
X001009Y013937D01*
X001008Y013940D01*
X001007Y013944D01*
X001006Y013948D01*
X001006Y013951D01*
X001005Y013955D01*
X001005Y013958D01*
X001004Y013961D01*
X001004Y013964D01*
X001004Y013967D01*
X001004Y013970D01*
X001005Y013972D01*
X001005Y013974D01*
X001006Y013976D01*
X001007Y013978D01*
X001007Y013979D01*
X001008Y013980D01*
X001009Y013981D01*
X001010Y013982D01*
X001012Y013983D01*
X001013Y013983D01*
X001014Y013984D01*
X001015Y013985D01*
X001016Y013985D01*
X001018Y013986D01*
X001020Y013987D01*
X001021Y013987D01*
X001022Y013987D01*
X001024Y013988D01*
X001025Y013988D01*
X001026Y013989D01*
X001027Y013990D01*
X001028Y013990D01*
X001028Y013991D01*
X001029Y013992D01*
X001030Y013993D01*
X001031Y013995D01*
X001030Y013997D01*
X001029Y014000D01*
X001029Y014003D01*
X001027Y014006D01*
X001025Y014010D01*
X001023Y014013D01*
X001021Y014017D01*
X001019Y014022D01*
X001017Y014026D01*
X001014Y014031D01*
X001012Y014035D01*
X001009Y014040D01*
X001007Y014044D01*
X001005Y014049D01*
X001003Y014053D01*
X001002Y014058D01*
X000999Y014066D01*
X000999Y014069D01*
X000999Y014072D01*
X000999Y014075D01*
X001000Y014078D01*
X001002Y014080D01*
X001003Y014081D01*
X001004Y014082D01*
X001006Y014083D01*
X001007Y014083D01*
X001009Y014084D01*
X001011Y014084D01*
X001013Y014085D01*
X001016Y014085D01*
X001018Y014085D01*
X001020Y014085D01*
X001023Y014085D01*
X001026Y014085D01*
X001028Y014085D01*
X001031Y014084D01*
X001034Y014084D01*
X001037Y014084D01*
X001040Y014083D01*
X001043Y014083D01*
X001046Y014082D01*
X001049Y014082D01*
X001053Y014081D01*
X001056Y014081D01*
X001059Y014080D01*
X001062Y014080D01*
X001065Y014079D01*
X001068Y014079D01*
X001070Y014079D01*
X001073Y014078D01*
X001075Y014078D01*
X001077Y014077D01*
X001080Y014077D01*
X001082Y014077D01*
X001083Y014076D01*
X001085Y014076D01*
X001087Y014076D01*
X001089Y014075D01*
X001091Y014075D01*
X001092Y014074D01*
X001094Y014073D01*
X001096Y014073D01*
X001098Y014072D01*
X001101Y014070D01*
X001103Y014069D01*
X001105Y014068D01*
X001107Y014067D01*
X001109Y014066D01*
X001111Y014064D01*
X001113Y014063D01*
X001116Y014059D01*
X001120Y014055D01*
X001124Y014050D01*
X001129Y014043D01*
X001140Y014029D01*
X001146Y014020D01*
X001159Y014002D01*
X001166Y013993D01*
X001172Y013984D01*
X001179Y013974D01*
X001185Y013965D01*
X001191Y013956D01*
X001197Y013947D01*
X001202Y013939D01*
X001212Y013924D01*
X001216Y013918D01*
X001218Y013913D01*
X001221Y013908D01*
X001223Y013905D01*
X001223Y013903D01*
X001223Y013902D01*
X001223Y013900D01*
X001222Y013898D01*
X001221Y013897D01*
X001220Y013894D01*
X001219Y013892D01*
X001218Y013890D01*
X001216Y013887D01*
X001214Y013885D01*
X001212Y013882D01*
X001210Y013880D01*
X001206Y013874D01*
X001203Y013872D01*
X001201Y013869D01*
X001198Y013866D01*
X001196Y013864D01*
X001193Y013862D01*
X001190Y013859D01*
X001188Y013857D01*
X001185Y013855D01*
X001183Y013853D01*
X001180Y013852D01*
X001177Y013850D01*
X001175Y013849D01*
X001172Y013848D01*
X001167Y013845D01*
X001164Y013844D01*
X001161Y013843D01*
X001158Y013841D01*
X001155Y013840D01*
X001152Y013839D01*
X001148Y013838D01*
X001145Y013837D01*
X001142Y013837D01*
X001139Y013836D01*
X001135Y013835D01*
X001132Y013835D01*
X001129Y013834D01*
X001126Y013834D01*
X001123Y013833D01*
X001120Y013833D01*
X001117Y013833D01*
X001115Y013833D01*
X001112Y013834D01*
X001110Y013853D02*
X001070Y013913D01*
X001030Y013923D01*
X001010Y013973D01*
X001040Y013993D01*
X001010Y014073D01*
X001100Y014063D01*
X001210Y013903D01*
X001160Y013853D01*
X001110Y013853D01*
X001103Y013864D02*
X001171Y013864D01*
X001189Y013882D02*
X001091Y013882D01*
X001078Y013901D02*
X001208Y013901D01*
X001199Y013919D02*
X001046Y013919D01*
X001024Y013938D02*
X001186Y013938D01*
X001174Y013956D02*
X001017Y013956D01*
X001012Y013975D02*
X001161Y013975D01*
X001148Y013993D02*
X001040Y013993D01*
X001033Y014012D02*
X001135Y014012D01*
X001123Y014030D02*
X001026Y014030D01*
X001019Y014049D02*
X001110Y014049D01*
X001063Y014067D02*
X001012Y014067D01*
X001032Y014120D02*
X001028Y014121D01*
X001024Y014123D01*
X001020Y014124D01*
X001016Y014126D01*
X001013Y014128D01*
X001010Y014129D01*
X001007Y014131D01*
X001004Y014133D01*
X001001Y014135D01*
X000999Y014137D01*
X000997Y014139D01*
X000995Y014141D01*
X000994Y014143D01*
X000992Y014146D01*
X000991Y014150D01*
X000990Y014155D01*
X000990Y014159D01*
X000989Y014165D01*
X000989Y014172D01*
X000989Y014178D01*
X000990Y014185D01*
X000990Y014193D01*
X000991Y014201D01*
X000991Y014210D01*
X000992Y014218D01*
X000993Y014227D01*
X000994Y014237D01*
X000995Y014247D01*
X000997Y014256D01*
X000998Y014266D01*
X000999Y014277D01*
X001000Y014287D01*
X001002Y014297D01*
X001003Y014308D01*
X001004Y014318D01*
X001006Y014329D01*
X001007Y014339D01*
X001008Y014348D01*
X001009Y014357D01*
X001010Y014366D01*
X001011Y014375D01*
X001012Y014384D01*
X001013Y014392D01*
X001014Y014401D01*
X001015Y014409D01*
X001016Y014416D01*
X001017Y014424D01*
X001018Y014431D01*
X001020Y014437D01*
X001021Y014444D01*
X001022Y014450D01*
X001023Y014456D01*
X001025Y014461D01*
X001026Y014466D01*
X001028Y014470D01*
X001029Y014474D01*
X001031Y014477D01*
X001033Y014480D01*
X001034Y014483D01*
X001036Y014485D01*
X001038Y014486D01*
X001041Y014487D01*
X001043Y014488D01*
X001046Y014489D01*
X001049Y014490D01*
X001053Y014491D01*
X001056Y014492D01*
X001060Y014493D01*
X001064Y014494D01*
X001068Y014494D01*
X001072Y014495D01*
X001076Y014496D01*
X001084Y014497D01*
X001089Y014497D01*
X001094Y014497D01*
X001098Y014498D01*
X001103Y014498D01*
X001108Y014498D01*
X001113Y014498D01*
X001118Y014498D01*
X001124Y014498D01*
X001129Y014498D01*
X001134Y014497D01*
X001140Y014497D01*
X001146Y014497D01*
X001151Y014496D01*
X001157Y014496D01*
X001163Y014495D01*
X001168Y014494D01*
X001174Y014493D01*
X001180Y014493D01*
X001185Y014492D01*
X001190Y014491D01*
X001195Y014489D01*
X001200Y014488D01*
X001205Y014487D01*
X001210Y014485D01*
X001214Y014484D01*
X001218Y014482D01*
X001222Y014481D01*
X001226Y014479D01*
X001229Y014477D01*
X001232Y014475D01*
X001235Y014473D01*
X001239Y014469D01*
X001241Y014467D01*
X001242Y014464D01*
X001243Y014463D01*
X001243Y014461D01*
X001243Y014458D01*
X001244Y014455D01*
X001244Y014451D01*
X001244Y014446D01*
X001244Y014441D01*
X001244Y014436D01*
X001244Y014430D01*
X001244Y014424D01*
X001244Y014418D01*
X001244Y014411D01*
X001243Y014403D01*
X001243Y014396D01*
X001242Y014388D01*
X001242Y014380D01*
X001241Y014371D01*
X001241Y014363D01*
X001240Y014354D01*
X001239Y014345D01*
X001238Y014335D01*
X001237Y014326D01*
X001236Y014316D01*
X001235Y014306D01*
X001234Y014297D01*
X001233Y014287D01*
X001232Y014277D01*
X001231Y014267D01*
X001230Y014257D01*
X001230Y014247D01*
X001229Y014237D01*
X001228Y014228D01*
X001227Y014218D01*
X001226Y014208D01*
X001225Y014199D01*
X001223Y014181D01*
X001222Y014172D01*
X001221Y014164D01*
X001220Y014157D01*
X001219Y014149D01*
X001217Y014143D01*
X001216Y014136D01*
X001214Y014130D01*
X001213Y014126D01*
X001211Y014121D01*
X001209Y014117D01*
X001206Y014114D01*
X001204Y014112D01*
X001202Y014110D01*
X001198Y014108D01*
X001195Y014106D01*
X001191Y014105D01*
X001187Y014104D01*
X001183Y014102D01*
X001178Y014102D01*
X001173Y014101D01*
X001168Y014101D01*
X001163Y014100D01*
X001158Y014100D01*
X001152Y014100D01*
X001147Y014100D01*
X001141Y014101D01*
X001135Y014101D01*
X001130Y014101D01*
X001124Y014102D01*
X001118Y014103D01*
X001112Y014103D01*
X001107Y014104D01*
X001101Y014105D01*
X001096Y014106D01*
X001090Y014107D01*
X001084Y014108D01*
X001078Y014109D01*
X001073Y014110D01*
X001067Y014111D01*
X001062Y014112D01*
X001056Y014113D01*
X001051Y014115D01*
X001046Y014116D01*
X001041Y014117D01*
X001037Y014118D01*
X001032Y014120D01*
X001048Y014123D02*
X001199Y014123D01*
X001200Y014123D02*
X001160Y014103D01*
X001070Y014113D01*
X001000Y014143D01*
X001010Y014313D01*
X001050Y014303D01*
X001090Y014223D01*
X001170Y014243D01*
X001190Y014343D01*
X001110Y014373D01*
X001060Y014313D01*
X001010Y014323D01*
X001040Y014473D01*
X001130Y014493D01*
X001240Y014463D01*
X001200Y014123D01*
X001202Y014141D02*
X001004Y014141D01*
X001001Y014160D02*
X001204Y014160D01*
X001206Y014178D02*
X001002Y014178D01*
X001003Y014197D02*
X001209Y014197D01*
X001211Y014215D02*
X001004Y014215D01*
X001005Y014234D02*
X001085Y014234D01*
X001092Y014251D02*
X001096Y014249D01*
X001099Y014247D01*
X001103Y014246D01*
X001106Y014244D01*
X001110Y014243D01*
X001114Y014243D01*
X001118Y014242D01*
X001122Y014242D01*
X001125Y014242D01*
X001129Y014242D01*
X001133Y014243D01*
X001137Y014243D01*
X001140Y014245D01*
X001144Y014246D01*
X001147Y014247D01*
X001150Y014249D01*
X001154Y014251D01*
X001157Y014253D01*
X001162Y014258D01*
X001165Y014260D01*
X001167Y014263D01*
X001170Y014266D01*
X001172Y014269D01*
X001175Y014276D01*
X001177Y014279D01*
X001178Y014283D01*
X001179Y014286D01*
X001180Y014290D01*
X001180Y014294D01*
X001180Y014298D01*
X001180Y014302D01*
X001180Y014306D01*
X001180Y014310D01*
X001179Y014313D01*
X001178Y014317D01*
X001177Y014321D01*
X001175Y014324D01*
X001173Y014327D01*
X001172Y014330D01*
X001169Y014334D01*
X001167Y014336D01*
X001165Y014339D01*
X001162Y014342D01*
X001159Y014344D01*
X001156Y014347D01*
X001153Y014349D01*
X001150Y014350D01*
X001147Y014352D01*
X001143Y014354D01*
X001140Y014355D01*
X001136Y014356D01*
X001132Y014357D01*
X001128Y014357D01*
X001124Y014357D01*
X001120Y014357D01*
X001117Y014357D01*
X001113Y014357D01*
X001109Y014356D01*
X001106Y014355D01*
X001102Y014353D01*
X001099Y014352D01*
X001095Y014350D01*
X001092Y014348D01*
X001089Y014346D01*
X001084Y014342D01*
X001081Y014339D01*
X001079Y014336D01*
X001076Y014333D01*
X001074Y014330D01*
X001072Y014327D01*
X001071Y014324D01*
X001069Y014320D01*
X001068Y014316D01*
X001067Y014313D01*
X001066Y014309D01*
X001066Y014305D01*
X001065Y014301D01*
X001065Y014297D01*
X001066Y014293D01*
X001066Y014289D01*
X001067Y014286D01*
X001068Y014282D01*
X001069Y014279D01*
X001071Y014275D01*
X001073Y014272D01*
X001074Y014269D01*
X001076Y014266D01*
X001079Y014263D01*
X001081Y014260D01*
X001084Y014257D01*
X001087Y014255D01*
X001089Y014253D01*
X001092Y014251D01*
X001075Y014252D02*
X001006Y014252D01*
X001008Y014271D02*
X001066Y014271D01*
X001057Y014289D02*
X001009Y014289D01*
X001010Y014308D02*
X001032Y014308D01*
X001011Y014326D02*
X001071Y014326D01*
X001086Y014345D02*
X001014Y014345D01*
X001018Y014363D02*
X001102Y014363D01*
X001136Y014363D02*
X001228Y014363D01*
X001226Y014345D02*
X001186Y014345D01*
X001187Y014326D02*
X001224Y014326D01*
X001222Y014308D02*
X001183Y014308D01*
X001179Y014289D02*
X001220Y014289D01*
X001217Y014271D02*
X001176Y014271D01*
X001172Y014252D02*
X001215Y014252D01*
X001213Y014234D02*
X001132Y014234D01*
X001249Y014220D02*
X001250Y014222D01*
X001250Y014225D01*
X001250Y014227D01*
X001251Y014229D01*
X001251Y014231D01*
X001252Y014233D01*
X001252Y014235D01*
X001253Y014237D01*
X001253Y014239D01*
X001254Y014240D01*
X001255Y014241D01*
X001255Y014243D01*
X001256Y014243D01*
X001257Y014244D01*
X001258Y014245D01*
X001259Y014245D01*
X001260Y014245D01*
X001261Y014246D01*
X001262Y014246D01*
X001264Y014246D01*
X001266Y014245D01*
X001268Y014245D01*
X001270Y014245D01*
X001272Y014244D01*
X001275Y014244D01*
X001277Y014243D01*
X001280Y014242D01*
X001283Y014242D01*
X001286Y014241D01*
X001289Y014240D01*
X001292Y014239D01*
X001295Y014238D01*
X001299Y014237D01*
X001302Y014236D01*
X001306Y014235D01*
X001309Y014234D01*
X001316Y014231D01*
X001320Y014230D01*
X001324Y014228D01*
X001327Y014227D01*
X001331Y014226D01*
X001334Y014224D01*
X001338Y014223D01*
X001341Y014222D01*
X001344Y014221D01*
X001347Y014219D01*
X001349Y014218D01*
X001352Y014217D01*
X001355Y014216D01*
X001357Y014215D01*
X001359Y014213D01*
X001362Y014212D01*
X001364Y014211D01*
X001365Y014210D01*
X001367Y014209D01*
X001369Y014208D01*
X001372Y014206D01*
X001373Y014204D01*
X001374Y014203D01*
X001375Y014202D01*
X001376Y014201D01*
X001377Y014200D01*
X001377Y014199D01*
X001377Y014198D01*
X001378Y014196D01*
X001378Y014194D01*
X001378Y014192D01*
X001378Y014189D01*
X001377Y014187D01*
X001377Y014184D01*
X001377Y014180D01*
X001377Y014177D01*
X001376Y014173D01*
X001375Y014165D01*
X001374Y014161D01*
X001373Y014157D01*
X001373Y014152D01*
X001372Y014148D01*
X001370Y014138D01*
X001369Y014134D01*
X001368Y014129D01*
X001367Y014124D01*
X001366Y014119D01*
X001364Y014115D01*
X001363Y014110D01*
X001362Y014106D01*
X001361Y014102D01*
X001360Y014098D01*
X001359Y014094D01*
X001358Y014090D01*
X001357Y014086D01*
X001356Y014082D01*
X001355Y014079D01*
X001354Y014075D01*
X001353Y014072D01*
X001352Y014068D01*
X001351Y014065D01*
X001350Y014062D01*
X001349Y014060D01*
X001349Y014057D01*
X001348Y014055D01*
X001347Y014053D01*
X001346Y014051D01*
X001346Y014049D01*
X001345Y014048D01*
X001345Y014047D01*
X001344Y014046D01*
X001344Y014046D01*
X001342Y014045D01*
X001341Y014045D01*
X001339Y014045D01*
X001336Y014044D01*
X001334Y014044D01*
X001331Y014045D01*
X001327Y014045D01*
X001324Y014045D01*
X001320Y014046D01*
X001317Y014046D01*
X001313Y014047D01*
X001309Y014048D01*
X001306Y014048D01*
X001302Y014049D01*
X001298Y014050D01*
X001295Y014051D01*
X001291Y014052D01*
X001288Y014053D01*
X001285Y014054D01*
X001283Y014055D01*
X001278Y014057D01*
X001277Y014058D01*
X001276Y014059D01*
X001275Y014060D01*
X001275Y014062D01*
X001274Y014064D01*
X001274Y014066D01*
X001274Y014069D01*
X001274Y014073D01*
X001274Y014076D01*
X001274Y014080D01*
X001274Y014084D01*
X001274Y014088D01*
X001274Y014093D01*
X001275Y014097D01*
X001275Y014101D01*
X001275Y014106D01*
X001276Y014110D01*
X001276Y014114D01*
X001276Y014118D01*
X001276Y014121D01*
X001277Y014125D01*
X001277Y014128D01*
X001277Y014133D01*
X001276Y014134D01*
X001276Y014135D01*
X001276Y014136D01*
X001275Y014137D01*
X001274Y014137D01*
X001274Y014138D01*
X001273Y014139D01*
X001273Y014139D01*
X001272Y014140D01*
X001271Y014141D01*
X001270Y014141D01*
X001269Y014142D01*
X001268Y014142D01*
X001266Y014144D01*
X001265Y014144D01*
X001264Y014145D01*
X001263Y014146D01*
X001262Y014147D01*
X001261Y014148D01*
X001260Y014149D01*
X001259Y014150D01*
X001257Y014151D01*
X001256Y014152D01*
X001255Y014153D01*
X001254Y014155D01*
X001253Y014156D01*
X001253Y014157D01*
X001252Y014159D01*
X001251Y014160D01*
X001251Y014161D01*
X001251Y014162D01*
X001250Y014164D01*
X001250Y014166D01*
X001250Y014167D01*
X001249Y014169D01*
X001249Y014171D01*
X001249Y014173D01*
X001249Y014175D01*
X001248Y014177D01*
X001248Y014179D01*
X001248Y014181D01*
X001248Y014183D01*
X001248Y014186D01*
X001248Y014188D01*
X001248Y014191D01*
X001248Y014193D01*
X001248Y014196D01*
X001248Y014198D01*
X001248Y014201D01*
X001248Y014204D01*
X001249Y014207D01*
X001249Y014209D01*
X001249Y014212D01*
X001249Y014215D01*
X001249Y014217D01*
X001249Y014220D01*
X001260Y014215D02*
X001310Y014215D01*
X001270Y014233D02*
X001360Y014193D01*
X001370Y014163D01*
X001330Y014053D01*
X001290Y014063D01*
X001290Y014143D01*
X001260Y014163D01*
X001260Y014233D01*
X001270Y014233D01*
X001260Y014197D02*
X001352Y014197D01*
X001365Y014178D02*
X001260Y014178D01*
X001265Y014160D02*
X001369Y014160D01*
X001362Y014141D02*
X001290Y014141D01*
X001290Y014123D02*
X001355Y014123D01*
X001349Y014104D02*
X001290Y014104D01*
X001290Y014086D02*
X001342Y014086D01*
X001335Y014067D02*
X001290Y014067D01*
X001162Y014104D02*
X001150Y014104D01*
X000951Y014142D02*
X000948Y014131D01*
X000946Y014120D01*
X000943Y014110D01*
X000941Y014100D01*
X000938Y014091D01*
X000936Y014084D01*
X000933Y014076D01*
X000931Y014069D01*
X000929Y014064D01*
X000926Y014059D01*
X000924Y014055D01*
X000922Y014052D01*
X000920Y014050D01*
X000918Y014048D01*
X000915Y014046D01*
X000913Y014045D01*
X000910Y014043D01*
X000907Y014042D01*
X000904Y014041D01*
X000900Y014040D01*
X000897Y014039D01*
X000893Y014038D01*
X000890Y014038D01*
X000886Y014038D01*
X000882Y014037D01*
X000878Y014037D01*
X000874Y014037D01*
X000869Y014037D01*
X000865Y014037D01*
X000856Y014038D01*
X000851Y014038D01*
X000847Y014039D01*
X000842Y014039D01*
X000837Y014040D01*
X000832Y014041D01*
X000827Y014042D01*
X000821Y014043D01*
X000816Y014044D01*
X000811Y014045D01*
X000805Y014046D01*
X000800Y014047D01*
X000795Y014049D01*
X000790Y014050D01*
X000785Y014051D01*
X000780Y014053D01*
X000776Y014054D01*
X000772Y014056D01*
X000767Y014057D01*
X000763Y014058D01*
X000756Y014061D01*
X000752Y014062D01*
X000750Y014063D01*
X000747Y014063D01*
X000744Y014064D01*
X000742Y014064D01*
X000740Y014065D01*
X000739Y014065D01*
X000738Y014065D01*
X000736Y014064D01*
X000735Y014063D01*
X000734Y014062D01*
X000732Y014061D01*
X000731Y014059D01*
X000729Y014057D01*
X000728Y014055D01*
X000726Y014053D01*
X000725Y014051D01*
X000723Y014049D01*
X000721Y014046D01*
X000718Y014044D01*
X000716Y014042D01*
X000713Y014040D01*
X000710Y014038D01*
X000706Y014036D01*
X000702Y014034D01*
X000698Y014033D01*
X000693Y014032D01*
X000688Y014031D01*
X000681Y014031D01*
X000675Y014031D01*
X000668Y014031D01*
X000660Y014032D01*
X000656Y014032D01*
X000652Y014033D01*
X000649Y014033D01*
X000645Y014034D01*
X000642Y014035D01*
X000639Y014036D01*
X000636Y014036D01*
X000633Y014037D01*
X000631Y014038D01*
X000628Y014039D01*
X000626Y014040D01*
X000624Y014041D01*
X000622Y014042D01*
X000620Y014043D01*
X000616Y014045D01*
X000615Y014046D01*
X000612Y014049D01*
X000610Y014050D01*
X000609Y014052D01*
X000608Y014053D01*
X000607Y014055D01*
X000606Y014056D01*
X000605Y014058D01*
X000604Y014060D01*
X000604Y014061D01*
X000603Y014063D01*
X000603Y014065D01*
X000602Y014067D01*
X000602Y014069D01*
X000602Y014071D01*
X000602Y014073D01*
X000602Y014075D01*
X000601Y014077D01*
X000601Y014079D01*
X000601Y014081D01*
X000601Y014083D01*
X000601Y014085D01*
X000601Y014086D01*
X000601Y014088D01*
X000601Y014089D01*
X000601Y014091D01*
X000601Y014092D01*
X000600Y014093D01*
X000600Y014094D01*
X000599Y014095D01*
X000599Y014096D01*
X000597Y014097D01*
X000594Y014098D01*
X000590Y014099D01*
X000586Y014100D01*
X000580Y014101D01*
X000573Y014102D01*
X000567Y014104D01*
X000559Y014105D01*
X000551Y014106D01*
X000543Y014108D01*
X000535Y014109D01*
X000527Y014110D01*
X000518Y014112D01*
X000510Y014114D01*
X000502Y014115D01*
X000494Y014117D01*
X000486Y014119D01*
X000479Y014121D01*
X000473Y014123D01*
X000467Y014125D01*
X000462Y014128D01*
X000457Y014130D01*
X000454Y014133D01*
X000452Y014135D01*
X000450Y014138D01*
X000449Y014142D01*
X000448Y014147D01*
X000448Y014152D01*
X000447Y014157D01*
X000448Y014163D01*
X000448Y014169D01*
X000448Y014176D01*
X000449Y014183D01*
X000449Y014190D01*
X000450Y014196D01*
X000451Y014203D01*
X000452Y014210D01*
X000453Y014217D01*
X000454Y014223D01*
X000455Y014229D01*
X000456Y014235D01*
X000457Y014245D01*
X000457Y014249D01*
X000457Y014253D01*
X000458Y014256D01*
X000457Y014258D01*
X000457Y014259D01*
X000456Y014260D01*
X000455Y014261D01*
X000453Y014261D01*
X000452Y014262D01*
X000450Y014263D01*
X000448Y014263D01*
X000446Y014264D01*
X000443Y014265D01*
X000441Y014266D01*
X000438Y014266D01*
X000435Y014267D01*
X000433Y014268D01*
X000430Y014269D01*
X000427Y014270D01*
X000424Y014272D01*
X000421Y014273D01*
X000418Y014274D01*
X000416Y014276D01*
X000413Y014277D01*
X000411Y014279D01*
X000408Y014281D01*
X000406Y014283D01*
X000404Y014285D01*
X000402Y014288D01*
X000401Y014291D01*
X000400Y014296D01*
X000400Y014304D01*
X000400Y014313D01*
X000401Y014323D01*
X000402Y014335D01*
X000404Y014347D01*
X000406Y014361D01*
X000409Y014375D01*
X000411Y014390D01*
X000414Y014405D01*
X000418Y014420D01*
X000421Y014435D01*
X000424Y014450D01*
X000428Y014464D01*
X000432Y014478D01*
X000435Y014491D01*
X000439Y014502D01*
X000443Y014514D01*
X000446Y014523D01*
X000449Y014531D01*
X000453Y014538D01*
X000456Y014542D01*
X000458Y014543D01*
X000461Y014545D01*
X000463Y014545D01*
X000466Y014546D01*
X000469Y014547D01*
X000471Y014547D01*
X000474Y014547D01*
X000477Y014547D01*
X000479Y014547D01*
X000482Y014547D01*
X000484Y014547D01*
X000487Y014546D01*
X000490Y014546D01*
X000492Y014546D01*
X000495Y014545D01*
X000497Y014545D01*
X000499Y014545D01*
X000501Y014545D01*
X000503Y014545D01*
X000505Y014544D01*
X000507Y014545D01*
X000509Y014545D01*
X000511Y014545D01*
X000512Y014546D01*
X000513Y014546D01*
X000515Y014547D01*
X000516Y014549D01*
X000518Y014551D01*
X000519Y014554D01*
X000521Y014557D01*
X000523Y014561D01*
X000524Y014564D01*
X000526Y014569D01*
X000528Y014573D01*
X000530Y014578D01*
X000532Y014582D01*
X000537Y014592D01*
X000539Y014597D01*
X000541Y014602D01*
X000544Y014607D01*
X000546Y014612D01*
X000548Y014616D01*
X000551Y014620D01*
X000553Y014625D01*
X000555Y014628D01*
X000558Y014632D01*
X000560Y014634D01*
X000563Y014637D01*
X000565Y014639D01*
X000569Y014641D01*
X000574Y014642D01*
X000580Y014643D01*
X000586Y014644D01*
X000594Y014644D01*
X000601Y014644D01*
X000610Y014644D01*
X000619Y014644D01*
X000627Y014644D01*
X000636Y014643D01*
X000645Y014642D01*
X000655Y014642D01*
X000664Y014641D01*
X000672Y014640D01*
X000681Y014639D01*
X000689Y014638D01*
X000696Y014637D01*
X000703Y014636D01*
X000709Y014635D01*
X000714Y014634D01*
X000719Y014634D01*
X000723Y014633D01*
X000724Y014633D01*
X000726Y014632D01*
X000727Y014633D01*
X000730Y014635D01*
X000731Y014636D01*
X000732Y014638D01*
X000733Y014640D01*
X000735Y014643D01*
X000736Y014645D01*
X000737Y014648D01*
X000739Y014651D01*
X000741Y014653D01*
X000743Y014656D01*
X000745Y014659D01*
X000748Y014661D01*
X000751Y014664D01*
X000755Y014666D01*
X000759Y014668D01*
X000763Y014670D01*
X000768Y014671D01*
X000774Y014672D01*
X000780Y014673D01*
X000787Y014673D01*
X000795Y014672D01*
X000804Y014672D01*
X000811Y014670D01*
X000816Y014668D01*
X000822Y014666D01*
X000827Y014663D01*
X000831Y014660D01*
X000835Y014657D01*
X000838Y014654D01*
X000840Y014650D01*
X000842Y014646D01*
X000844Y014642D01*
X000845Y014638D01*
X000847Y014634D01*
X000847Y014630D01*
X000848Y014627D01*
X000849Y014623D01*
X000850Y014619D01*
X000851Y014612D01*
X000852Y014610D01*
X000853Y014607D01*
X000854Y014605D01*
X000856Y014603D01*
X000858Y014602D01*
X000860Y014601D01*
X000864Y014600D01*
X000869Y014599D01*
X000873Y014598D01*
X000879Y014598D01*
X000885Y014597D01*
X000892Y014596D01*
X000899Y014595D01*
X000906Y014594D01*
X000914Y014593D01*
X000922Y014592D01*
X000929Y014590D01*
X000937Y014589D01*
X000945Y014587D01*
X000953Y014585D01*
X000961Y014583D01*
X000968Y014581D01*
X000975Y014578D01*
X000982Y014575D01*
X000988Y014572D01*
X000993Y014568D01*
X000999Y014564D01*
X001003Y014560D01*
X001006Y014555D01*
X001008Y014552D01*
X001009Y014548D01*
X001010Y014543D01*
X001011Y014538D01*
X001011Y014531D01*
X001010Y014517D01*
X001010Y014509D01*
X001009Y014500D01*
X001008Y014490D01*
X001007Y014481D01*
X001005Y014470D01*
X001003Y014459D01*
X001002Y014448D01*
X001000Y014436D01*
X000998Y014424D01*
X000996Y014411D01*
X000994Y014398D01*
X000991Y014384D01*
X000989Y014370D01*
X000987Y014356D01*
X000985Y014342D01*
X000982Y014327D01*
X000980Y014312D01*
X000978Y014297D01*
X000976Y014281D01*
X000973Y014266D01*
X000971Y014250D01*
X000969Y014235D01*
X000966Y014221D01*
X000964Y014207D01*
X000961Y014193D01*
X000959Y014180D01*
X000956Y014166D01*
X000953Y014154D01*
X000951Y014142D01*
X000941Y014141D02*
X000527Y014141D01*
X000524Y014141D02*
X000464Y014141D01*
X000460Y014143D02*
X000500Y014123D01*
X000560Y014163D01*
X000570Y014283D01*
X000570Y014443D01*
X000630Y014553D01*
X000690Y014563D01*
X000780Y014553D01*
X000820Y014473D01*
X000770Y014363D01*
X000750Y014353D01*
X000640Y014353D01*
X000580Y014453D01*
X000550Y014353D01*
X000560Y014293D01*
X000640Y014313D01*
X000700Y014293D01*
X000730Y014243D01*
X000810Y014223D01*
X000820Y014263D01*
X000840Y014353D01*
X000910Y014333D01*
X000910Y014353D01*
X000840Y014373D01*
X000860Y014443D01*
X000920Y014433D01*
X000920Y014423D01*
X000890Y014273D01*
X000820Y014283D01*
X000810Y014273D01*
X000890Y014253D01*
X000870Y014163D01*
X000790Y014183D01*
X000800Y014213D01*
X000730Y014233D01*
X000710Y014173D01*
X000640Y014143D01*
X000550Y014193D01*
X000510Y014113D01*
X000620Y014103D01*
X000620Y014053D01*
X000680Y014033D01*
X000730Y014083D01*
X000850Y014043D01*
X000900Y014043D01*
X000950Y014163D01*
X001000Y014543D01*
X000930Y014583D01*
X000850Y014593D01*
X000820Y014653D01*
X000780Y014663D01*
X000740Y014633D01*
X000730Y014623D01*
X000580Y014633D01*
X000530Y014553D01*
X000510Y014523D01*
X000470Y014533D01*
X000440Y014473D01*
X000430Y014403D01*
X000410Y014293D01*
X000470Y014253D01*
X000460Y014143D01*
X000462Y014160D02*
X000533Y014160D01*
X000543Y014178D02*
X000463Y014178D01*
X000465Y014197D02*
X000563Y014197D01*
X000576Y014203D02*
X000578Y014198D01*
X000580Y014194D01*
X000583Y014190D01*
X000585Y014186D01*
X000588Y014183D01*
X000592Y014180D01*
X000595Y014176D01*
X000599Y014173D01*
X000602Y014171D01*
X000606Y014168D01*
X000610Y014166D01*
X000619Y014162D01*
X000624Y014160D01*
X000629Y014159D01*
X000633Y014159D01*
X000638Y014158D01*
X000648Y014158D01*
X000653Y014159D01*
X000658Y014159D01*
X000663Y014160D01*
X000667Y014162D01*
X000676Y014166D01*
X000680Y014168D01*
X000684Y014171D01*
X000688Y014173D01*
X000692Y014176D01*
X000695Y014180D01*
X000698Y014183D01*
X000701Y014186D01*
X000704Y014190D01*
X000707Y014194D01*
X000709Y014198D01*
X000711Y014203D01*
X000712Y014207D01*
X000714Y014212D01*
X000715Y014217D01*
X000716Y014221D01*
X000716Y014226D01*
X000716Y014237D01*
X000716Y014242D01*
X000715Y014246D01*
X000714Y014251D01*
X000712Y014256D01*
X000711Y014260D01*
X000709Y014264D01*
X000707Y014269D01*
X000704Y014273D01*
X000701Y014276D01*
X000698Y014280D01*
X000695Y014283D01*
X000692Y014287D01*
X000688Y014290D01*
X000684Y014292D01*
X000680Y014295D01*
X000676Y014297D01*
X000672Y014299D01*
X000667Y014301D01*
X000663Y014302D01*
X000658Y014303D01*
X000653Y014304D01*
X000648Y014305D01*
X000638Y014305D01*
X000633Y014304D01*
X000629Y014303D01*
X000624Y014302D01*
X000619Y014301D01*
X000615Y014299D01*
X000610Y014297D01*
X000606Y014295D01*
X000602Y014292D01*
X000599Y014290D01*
X000595Y014287D01*
X000592Y014283D01*
X000588Y014280D01*
X000585Y014276D01*
X000583Y014273D01*
X000580Y014269D01*
X000578Y014264D01*
X000576Y014260D01*
X000574Y014256D01*
X000573Y014251D01*
X000572Y014246D01*
X000571Y014242D01*
X000570Y014237D01*
X000570Y014226D01*
X000571Y014221D01*
X000572Y014217D01*
X000573Y014212D01*
X000574Y014207D01*
X000576Y014203D01*
X000564Y014215D02*
X000467Y014215D01*
X000468Y014234D02*
X000566Y014234D01*
X000567Y014252D02*
X000470Y014252D01*
X000444Y014271D02*
X000569Y014271D01*
X000570Y014289D02*
X000416Y014289D01*
X000413Y014308D02*
X000558Y014308D01*
X000570Y014308D02*
X000618Y014308D01*
X000656Y014308D02*
X000830Y014308D01*
X000837Y014308D02*
X000835Y014300D01*
X000834Y014292D01*
X000832Y014284D01*
X000839Y014283D01*
X000854Y014281D01*
X000861Y014280D01*
X000868Y014279D01*
X000883Y014277D01*
X000890Y014276D01*
X000892Y014284D01*
X000894Y014299D01*
X000895Y014307D01*
X000897Y014315D01*
X000899Y014330D01*
X000900Y014338D01*
X000893Y014339D01*
X000886Y014340D01*
X000879Y014341D01*
X000872Y014343D01*
X000866Y014344D01*
X000859Y014345D01*
X000852Y014346D01*
X000845Y014348D01*
X000843Y014340D01*
X000841Y014332D01*
X000840Y014324D01*
X000838Y014316D01*
X000837Y014308D01*
X000834Y014326D02*
X000570Y014326D01*
X000554Y014326D02*
X000416Y014326D01*
X000419Y014345D02*
X000551Y014345D01*
X000553Y014363D02*
X000423Y014363D01*
X000426Y014382D02*
X000559Y014382D01*
X000570Y014382D02*
X000623Y014382D01*
X000629Y014386D02*
X000633Y014381D01*
X000638Y014377D01*
X000644Y014373D01*
X000649Y014369D01*
X000655Y014366D01*
X000661Y014364D01*
X000667Y014361D01*
X000673Y014359D01*
X000680Y014358D01*
X000687Y014356D01*
X000693Y014356D01*
X000707Y014356D01*
X000714Y014356D01*
X000721Y014358D01*
X000727Y014359D01*
X000734Y014361D01*
X000740Y014364D01*
X000746Y014366D01*
X000752Y014369D01*
X000757Y014373D01*
X000762Y014377D01*
X000767Y014381D01*
X000772Y014386D01*
X000776Y014390D01*
X000781Y014395D01*
X000784Y014401D01*
X000788Y014406D01*
X000791Y014412D01*
X000794Y014418D01*
X000796Y014424D01*
X000798Y014430D01*
X000799Y014437D01*
X000801Y014444D01*
X000802Y014450D01*
X000802Y014464D01*
X000801Y014471D01*
X000799Y014478D01*
X000798Y014485D01*
X000796Y014491D01*
X000794Y014497D01*
X000791Y014503D01*
X000788Y014509D01*
X000784Y014514D01*
X000781Y014520D01*
X000776Y014525D01*
X000772Y014529D01*
X000767Y014534D01*
X000762Y014538D01*
X000757Y014542D01*
X000752Y014545D01*
X000746Y014549D01*
X000740Y014551D01*
X000734Y014554D01*
X000727Y014556D01*
X000714Y014558D01*
X000707Y014559D01*
X000693Y014559D01*
X000687Y014558D01*
X000680Y014557D01*
X000673Y014556D01*
X000667Y014554D01*
X000661Y014551D01*
X000655Y014549D01*
X000649Y014545D01*
X000644Y014542D01*
X000638Y014538D01*
X000633Y014534D01*
X000629Y014529D01*
X000624Y014525D01*
X000620Y014520D01*
X000617Y014514D01*
X000613Y014509D01*
X000610Y014503D01*
X000607Y014497D01*
X000605Y014491D01*
X000603Y014485D01*
X000601Y014478D01*
X000600Y014471D01*
X000599Y014464D01*
X000599Y014450D01*
X000600Y014444D01*
X000601Y014437D01*
X000603Y014430D01*
X000605Y014424D01*
X000607Y014418D01*
X000610Y014412D01*
X000613Y014406D01*
X000617Y014401D01*
X000620Y014395D01*
X000624Y014390D01*
X000629Y014386D01*
X000612Y014400D02*
X000570Y014400D01*
X000564Y014400D02*
X000429Y014400D01*
X000432Y014419D02*
X000570Y014419D01*
X000601Y014419D01*
X000590Y014437D02*
X000575Y014437D01*
X000570Y014437D02*
X000435Y014437D01*
X000438Y014456D02*
X000577Y014456D01*
X000587Y014474D02*
X000441Y014474D01*
X000450Y014493D02*
X000597Y014493D01*
X000607Y014511D02*
X000459Y014511D01*
X000468Y014530D02*
X000484Y014530D01*
X000514Y014530D02*
X000617Y014530D01*
X000627Y014548D02*
X000527Y014548D01*
X000538Y014567D02*
X000959Y014567D01*
X000991Y014548D02*
X000782Y014548D01*
X000792Y014530D02*
X000998Y014530D01*
X000996Y014511D02*
X000801Y014511D01*
X000810Y014493D02*
X000993Y014493D01*
X000991Y014474D02*
X000819Y014474D01*
X000812Y014456D02*
X000988Y014456D01*
X000986Y014437D02*
X000895Y014437D01*
X000897Y014430D02*
X000890Y014431D01*
X000883Y014432D01*
X000876Y014433D01*
X000869Y014435D01*
X000862Y014436D01*
X000860Y014428D01*
X000859Y014420D01*
X000857Y014413D01*
X000854Y014397D01*
X000853Y014389D01*
X000852Y014381D01*
X000850Y014374D01*
X000857Y014372D01*
X000864Y014371D01*
X000871Y014370D01*
X000879Y014369D01*
X000886Y014367D01*
X000893Y014366D01*
X000900Y014365D01*
X000907Y014364D01*
X000908Y014371D01*
X000910Y014379D01*
X000911Y014387D01*
X000912Y014395D01*
X000914Y014403D01*
X000916Y014418D01*
X000918Y014426D01*
X000911Y014427D01*
X000904Y014429D01*
X000897Y014430D01*
X000919Y014419D02*
X000984Y014419D01*
X000981Y014400D02*
X000915Y014400D01*
X000912Y014382D02*
X000979Y014382D01*
X000976Y014363D02*
X000908Y014363D01*
X000910Y014345D02*
X000974Y014345D01*
X000971Y014326D02*
X000901Y014326D01*
X000897Y014308D02*
X000969Y014308D01*
X000967Y014289D02*
X000893Y014289D01*
X000890Y014252D02*
X000962Y014252D01*
X000959Y014234D02*
X000886Y014234D01*
X000881Y014238D02*
X000882Y014246D01*
X000859Y014249D01*
X000851Y014251D01*
X000843Y014252D01*
X000820Y014255D01*
X000819Y014247D01*
X000817Y014239D01*
X000815Y014231D01*
X000814Y014224D01*
X000812Y014216D01*
X000809Y014200D01*
X000807Y014192D01*
X000815Y014191D01*
X000831Y014188D01*
X000839Y014187D01*
X000847Y014186D01*
X000855Y014185D01*
X000863Y014184D01*
X000871Y014183D01*
X000872Y014191D01*
X000873Y014198D01*
X000875Y014206D01*
X000876Y014214D01*
X000878Y014222D01*
X000879Y014230D01*
X000881Y014238D01*
X000882Y014215D02*
X000957Y014215D01*
X000954Y014197D02*
X000877Y014197D01*
X000873Y014178D02*
X000952Y014178D01*
X000949Y014160D02*
X000679Y014160D01*
X000712Y014178D02*
X000810Y014178D01*
X000795Y014197D02*
X000718Y014197D01*
X000724Y014215D02*
X000793Y014215D01*
X000813Y014234D02*
X000768Y014234D01*
X000725Y014252D02*
X000817Y014252D01*
X000820Y014271D02*
X000713Y014271D01*
X000702Y014289D02*
X000826Y014289D01*
X000822Y014271D02*
X000964Y014271D01*
X000904Y014345D02*
X000869Y014345D01*
X000875Y014363D02*
X000770Y014363D01*
X000778Y014382D02*
X000842Y014382D01*
X000848Y014400D02*
X000787Y014400D01*
X000795Y014419D02*
X000853Y014419D01*
X000858Y014437D02*
X000804Y014437D01*
X000746Y014445D02*
X000746Y014448D01*
X000747Y014451D01*
X000747Y014454D01*
X000747Y014460D01*
X000747Y014463D01*
X000746Y014466D01*
X000746Y014469D01*
X000745Y014472D01*
X000744Y014475D01*
X000742Y014478D01*
X000741Y014480D01*
X000739Y014483D01*
X000738Y014485D01*
X000736Y014487D01*
X000732Y014491D01*
X000729Y014493D01*
X000727Y014495D01*
X000725Y014497D01*
X000722Y014498D01*
X000719Y014499D01*
X000717Y014500D01*
X000714Y014501D01*
X000711Y014502D01*
X000708Y014503D01*
X000705Y014503D01*
X000698Y014503D01*
X000695Y014503D01*
X000692Y014502D01*
X000689Y014501D01*
X000686Y014500D01*
X000684Y014499D01*
X000681Y014498D01*
X000678Y014497D01*
X000676Y014495D01*
X000674Y014493D01*
X000671Y014491D01*
X000669Y014489D01*
X000667Y014487D01*
X000665Y014485D01*
X000664Y014483D01*
X000662Y014480D01*
X000661Y014478D01*
X000659Y014475D01*
X000658Y014472D01*
X000657Y014469D01*
X000657Y014466D01*
X000656Y014463D01*
X000656Y014460D01*
X000656Y014454D01*
X000656Y014451D01*
X000657Y014448D01*
X000657Y014445D01*
X000658Y014442D01*
X000659Y014439D01*
X000661Y014436D01*
X000662Y014434D01*
X000664Y014431D01*
X000665Y014429D01*
X000667Y014427D01*
X000669Y014425D01*
X000671Y014422D01*
X000674Y014421D01*
X000676Y014419D01*
X000678Y014417D01*
X000681Y014416D01*
X000684Y014415D01*
X000686Y014414D01*
X000689Y014413D01*
X000692Y014412D01*
X000695Y014411D01*
X000698Y014411D01*
X000705Y014411D01*
X000708Y014411D01*
X000711Y014412D01*
X000714Y014413D01*
X000717Y014414D01*
X000719Y014415D01*
X000722Y014416D01*
X000725Y014417D01*
X000727Y014419D01*
X000729Y014421D01*
X000732Y014422D01*
X000734Y014425D01*
X000736Y014427D01*
X000738Y014429D01*
X000739Y014431D01*
X000741Y014434D01*
X000742Y014436D01*
X000744Y014439D01*
X000745Y014442D01*
X000746Y014445D01*
X000838Y014345D02*
X000570Y014345D01*
X000570Y014363D02*
X000634Y014363D01*
X000577Y014178D02*
X000561Y014178D01*
X000555Y014160D02*
X000610Y014160D01*
X000608Y014104D02*
X000925Y014104D01*
X000918Y014086D02*
X000620Y014086D01*
X000620Y014067D02*
X000714Y014067D01*
X000696Y014049D02*
X000633Y014049D01*
X000515Y014123D02*
X000933Y014123D01*
X000910Y014067D02*
X000778Y014067D01*
X000833Y014049D02*
X000902Y014049D01*
X001022Y014382D02*
X001230Y014382D01*
X001233Y014400D02*
X001025Y014400D01*
X001029Y014419D02*
X001235Y014419D01*
X001237Y014437D02*
X001033Y014437D01*
X001037Y014456D02*
X001239Y014456D01*
X001199Y014474D02*
X001045Y014474D01*
X001067Y014543D02*
X001069Y014542D01*
X001071Y014542D01*
X001073Y014541D01*
X001076Y014541D01*
X001078Y014540D01*
X001081Y014540D01*
X001083Y014539D01*
X001086Y014539D01*
X001089Y014539D01*
X001094Y014539D01*
X001097Y014538D01*
X001100Y014538D01*
X001103Y014538D01*
X001107Y014538D01*
X001110Y014538D01*
X001113Y014538D01*
X001116Y014538D01*
X001119Y014538D01*
X001122Y014538D01*
X001125Y014538D01*
X001127Y014538D01*
X001130Y014538D01*
X001133Y014538D01*
X001136Y014538D01*
X001138Y014538D01*
X001141Y014538D01*
X001143Y014539D01*
X001146Y014539D01*
X001148Y014539D01*
X001150Y014539D01*
X001152Y014540D01*
X001155Y014540D01*
X001157Y014541D01*
X001159Y014541D01*
X001160Y014542D01*
X001164Y014543D01*
X001166Y014544D01*
X001167Y014545D01*
X001170Y014546D01*
X001174Y014550D01*
X001178Y014556D01*
X001182Y014562D01*
X001187Y014569D01*
X001192Y014578D01*
X001197Y014586D01*
X001202Y014596D01*
X001208Y014607D01*
X001214Y014617D01*
X001219Y014629D01*
X001225Y014640D01*
X001230Y014651D01*
X001235Y014663D01*
X001240Y014674D01*
X001245Y014685D01*
X001249Y014696D01*
X001252Y014706D01*
X001256Y014715D01*
X001258Y014724D01*
X001260Y014731D01*
X001262Y014738D01*
X001262Y014744D01*
X001262Y014748D01*
X001261Y014749D01*
X001261Y014751D01*
X001260Y014753D01*
X001259Y014755D01*
X001258Y014757D01*
X001257Y014759D01*
X001256Y014761D01*
X001254Y014763D01*
X001252Y014765D01*
X001251Y014768D01*
X001249Y014770D01*
X001246Y014772D01*
X001244Y014774D01*
X001242Y014777D01*
X001236Y014782D01*
X001233Y014784D01*
X001230Y014787D01*
X001226Y014790D01*
X001223Y014792D01*
X001219Y014795D01*
X001215Y014798D01*
X001211Y014801D01*
X001206Y014804D01*
X001202Y014806D01*
X001199Y014809D01*
X001195Y014811D01*
X001192Y014813D01*
X001188Y014815D01*
X001185Y014817D01*
X001181Y014820D01*
X001178Y014821D01*
X001175Y014823D01*
X001171Y014825D01*
X001168Y014826D01*
X001162Y014829D01*
X001159Y014830D01*
X001153Y014832D01*
X001150Y014833D01*
X001148Y014833D01*
X001145Y014833D01*
X001142Y014833D01*
X001140Y014833D01*
X001137Y014833D01*
X001135Y014832D01*
X001133Y014832D01*
X001131Y014831D01*
X001129Y014829D01*
X001127Y014828D01*
X001125Y014826D01*
X001124Y014823D01*
X001122Y014820D01*
X001121Y014818D01*
X001120Y014814D01*
X001118Y014811D01*
X001117Y014808D01*
X001116Y014804D01*
X001115Y014801D01*
X001113Y014797D01*
X001112Y014794D01*
X001111Y014791D01*
X001110Y014787D01*
X001109Y014784D01*
X001108Y014781D01*
X001107Y014778D01*
X001106Y014776D01*
X001105Y014773D01*
X001104Y014771D01*
X001102Y014770D01*
X001101Y014769D01*
X001101Y014768D01*
X001100Y014768D01*
X001099Y014768D01*
X001098Y014767D01*
X001096Y014767D01*
X001095Y014767D01*
X001093Y014767D01*
X001091Y014768D01*
X001090Y014768D01*
X001088Y014768D01*
X001086Y014768D01*
X001084Y014769D01*
X001082Y014769D01*
X001080Y014769D01*
X001078Y014769D01*
X001076Y014769D01*
X001074Y014770D01*
X001072Y014770D01*
X001070Y014770D01*
X001068Y014770D01*
X001066Y014769D01*
X001064Y014769D01*
X001062Y014769D01*
X001060Y014768D01*
X001059Y014768D01*
X001058Y014767D01*
X001056Y014766D01*
X001055Y014765D01*
X001054Y014764D01*
X001053Y014763D01*
X001052Y014762D01*
X001051Y014760D01*
X001050Y014759D01*
X001050Y014757D01*
X001049Y014756D01*
X001048Y014754D01*
X001048Y014753D01*
X001047Y014751D01*
X001047Y014750D01*
X001047Y014748D01*
X001046Y014747D01*
X001046Y014745D01*
X001046Y014744D01*
X001046Y014743D01*
X001045Y014742D01*
X001045Y014741D01*
X001045Y014740D01*
X001045Y014739D01*
X001045Y014738D01*
X001045Y014737D01*
X001045Y014736D01*
X001044Y014735D01*
X001044Y014734D01*
X001044Y014733D01*
X001044Y014732D01*
X001044Y014730D01*
X001044Y014729D01*
X001044Y014728D01*
X001044Y014726D01*
X001044Y014725D01*
X001043Y014724D01*
X001044Y014722D01*
X001044Y014721D01*
X001044Y014719D01*
X001044Y014718D01*
X001044Y014717D01*
X001045Y014716D01*
X001045Y014715D01*
X001045Y014714D01*
X001046Y014713D01*
X001047Y014712D01*
X001047Y014711D01*
X001048Y014711D01*
X001049Y014710D01*
X001050Y014710D01*
X001051Y014709D01*
X001053Y014709D01*
X001056Y014708D01*
X001058Y014707D01*
X001060Y014707D01*
X001062Y014706D01*
X001064Y014706D01*
X001066Y014706D01*
X001067Y014705D01*
X001069Y014705D01*
X001071Y014704D01*
X001073Y014704D01*
X001075Y014703D01*
X001077Y014703D01*
X001078Y014702D01*
X001080Y014701D01*
X001081Y014701D01*
X001082Y014700D01*
X001083Y014699D01*
X001084Y014698D01*
X001085Y014698D01*
X001085Y014695D01*
X001084Y014691D01*
X001084Y014687D01*
X001083Y014681D01*
X001080Y014668D01*
X001078Y014660D01*
X001077Y014652D01*
X001075Y014644D01*
X001073Y014635D01*
X001071Y014626D01*
X001069Y014617D01*
X001067Y014608D01*
X001065Y014600D01*
X001063Y014592D01*
X001062Y014584D01*
X001060Y014577D01*
X001059Y014570D01*
X001058Y014564D01*
X001058Y014559D01*
X001057Y014554D01*
X001057Y014551D01*
X001058Y014550D01*
X001058Y014548D01*
X001059Y014547D01*
X001060Y014547D01*
X001061Y014546D01*
X001062Y014545D01*
X001064Y014544D01*
X001065Y014543D01*
X001067Y014543D01*
X001070Y014553D02*
X001090Y014693D01*
X001050Y014723D01*
X001060Y014763D01*
X001100Y014763D01*
X001130Y014823D01*
X001160Y014813D01*
X001230Y014773D01*
X001250Y014743D01*
X001160Y014553D01*
X001110Y014543D01*
X001070Y014553D01*
X001072Y014567D02*
X001166Y014567D01*
X001175Y014585D02*
X001075Y014585D01*
X001077Y014604D02*
X001184Y014604D01*
X001193Y014622D02*
X001080Y014622D01*
X001083Y014641D02*
X001201Y014641D01*
X001210Y014659D02*
X001085Y014659D01*
X001088Y014678D02*
X001219Y014678D01*
X001228Y014696D02*
X001086Y014696D01*
X001061Y014715D02*
X001237Y014715D01*
X001245Y014733D02*
X001053Y014733D01*
X001057Y014752D02*
X001244Y014752D01*
X001232Y014770D02*
X001104Y014770D01*
X001113Y014789D02*
X001203Y014789D01*
X001170Y014807D02*
X001122Y014807D01*
X001135Y014548D02*
X001090Y014548D01*
X001128Y014493D02*
X001131Y014493D01*
X001269Y014400D02*
X001268Y014399D01*
X001268Y014398D01*
X001267Y014396D01*
X001267Y014395D01*
X001266Y014394D01*
X001265Y014392D01*
X001265Y014391D01*
X001264Y014389D01*
X001264Y014387D01*
X001263Y014385D01*
X001263Y014383D01*
X001262Y014381D01*
X001262Y014379D01*
X001261Y014377D01*
X001261Y014374D01*
X001260Y014372D01*
X001260Y014369D01*
X001260Y014367D01*
X001259Y014364D01*
X001259Y014361D01*
X001259Y014358D01*
X001259Y014354D01*
X001258Y014351D01*
X001258Y014348D01*
X001258Y014345D01*
X001258Y014342D01*
X001258Y014339D01*
X001258Y014336D01*
X001258Y014334D01*
X001258Y014331D01*
X001258Y014328D01*
X001259Y014326D01*
X001259Y014324D01*
X001259Y014321D01*
X001259Y014319D01*
X001260Y014318D01*
X001260Y014316D01*
X001261Y014314D01*
X001261Y014313D01*
X001262Y014312D01*
X001262Y014311D01*
X001263Y014310D01*
X001263Y014309D01*
X001264Y014309D01*
X001265Y014308D01*
X001268Y014307D01*
X001272Y014306D01*
X001276Y014305D01*
X001280Y014304D01*
X001286Y014304D01*
X001291Y014303D01*
X001297Y014302D01*
X001303Y014301D01*
X001309Y014301D01*
X001316Y014300D01*
X001322Y014300D01*
X001329Y014299D01*
X001335Y014299D01*
X001342Y014299D01*
X001348Y014299D01*
X001353Y014299D01*
X001359Y014299D01*
X001364Y014299D01*
X001368Y014300D01*
X001372Y014300D01*
X001375Y014301D01*
X001378Y014302D01*
X001379Y014303D01*
X001379Y014303D01*
X001380Y014304D01*
X001380Y014306D01*
X001381Y014307D01*
X001381Y014310D01*
X001382Y014312D01*
X001383Y014315D01*
X001383Y014318D01*
X001384Y014322D01*
X001385Y014325D01*
X001386Y014329D01*
X001387Y014334D01*
X001388Y014338D01*
X001389Y014343D01*
X001390Y014348D01*
X001391Y014353D01*
X001392Y014358D01*
X001392Y014363D01*
X001393Y014368D01*
X001394Y014374D01*
X001396Y014385D01*
X001396Y014391D01*
X001397Y014397D01*
X001398Y014402D01*
X001398Y014407D01*
X001398Y014412D01*
X001399Y014417D01*
X001399Y014423D01*
X001400Y014433D01*
X001400Y014437D01*
X001400Y014442D01*
X001400Y014447D01*
X001400Y014451D01*
X001400Y014455D01*
X001400Y014459D01*
X001400Y014463D01*
X001400Y014467D01*
X001400Y014470D01*
X001399Y014473D01*
X001399Y014476D01*
X001399Y014479D01*
X001399Y014481D01*
X001398Y014483D01*
X001398Y014485D01*
X001398Y014486D01*
X001398Y014487D01*
X001397Y014489D01*
X001396Y014491D01*
X001394Y014492D01*
X001392Y014494D01*
X001389Y014495D01*
X001387Y014496D01*
X001384Y014497D01*
X001381Y014498D01*
X001378Y014499D01*
X001375Y014500D01*
X001371Y014501D01*
X001367Y014502D01*
X001364Y014502D01*
X001360Y014503D01*
X001357Y014503D01*
X001353Y014503D01*
X001350Y014503D01*
X001346Y014503D01*
X001343Y014503D01*
X001340Y014502D01*
X001337Y014501D01*
X001334Y014501D01*
X001332Y014500D01*
X001330Y014499D01*
X001328Y014498D01*
X001327Y014496D01*
X001326Y014494D01*
X001325Y014491D01*
X001323Y014488D01*
X001321Y014480D01*
X001320Y014476D01*
X001320Y014471D01*
X001319Y014467D01*
X001318Y014462D01*
X001317Y014452D01*
X001316Y014448D01*
X001315Y014443D01*
X001315Y014439D01*
X001314Y014434D01*
X001313Y014426D01*
X001312Y014423D01*
X001311Y014418D01*
X001310Y014416D01*
X001310Y014415D01*
X001309Y014414D01*
X001308Y014413D01*
X001307Y014412D01*
X001306Y014412D01*
X001304Y014411D01*
X001301Y014410D01*
X001299Y014410D01*
X001297Y014409D01*
X001295Y014409D01*
X001294Y014408D01*
X001292Y014408D01*
X001290Y014408D01*
X001288Y014407D01*
X001286Y014407D01*
X001284Y014407D01*
X001282Y014406D01*
X001280Y014406D01*
X001278Y014405D01*
X001277Y014405D01*
X001275Y014404D01*
X001274Y014404D01*
X001272Y014403D01*
X001271Y014402D01*
X001270Y014401D01*
X001270Y014400D01*
X001269Y014400D01*
X001271Y014402D02*
X001271Y014402D01*
X001280Y014393D02*
X001270Y014313D01*
X001320Y014303D01*
X001370Y014303D01*
X001390Y014483D01*
X001340Y014493D01*
X001342Y014493D01*
X001340Y014493D02*
X001320Y014413D01*
X001280Y014393D01*
X001279Y014382D02*
X001379Y014382D01*
X001381Y014400D02*
X001294Y014400D01*
X001321Y014419D02*
X001383Y014419D01*
X001385Y014437D02*
X001326Y014437D01*
X001331Y014456D02*
X001387Y014456D01*
X001389Y014474D02*
X001335Y014474D01*
X001377Y014363D02*
X001276Y014363D01*
X001274Y014345D02*
X001375Y014345D01*
X001373Y014326D02*
X001272Y014326D01*
X001297Y014308D02*
X001371Y014308D01*
X000913Y014585D02*
X000550Y014585D01*
X000562Y014604D02*
X000845Y014604D01*
X000835Y014622D02*
X000573Y014622D01*
X000750Y014641D02*
X000826Y014641D01*
X000796Y014659D02*
X000775Y014659D01*
M02*
